<svg xmlns="http://www.w3.org/2000/svg" xmlns:xlink="http://www.w3.org/1999/xlink" width="1200" height="633.79" viewBox="0 19.421 1200 633.79" enable-background="new 0 19.421 1200 633.79"><defs><rect id="a" x="-.81" y="21.535" width="1199.619" height="630.676"/></defs><clipPath id="b"><use xlink:href="#a" overflow="visible"/></clipPath><g clip-path="url(#b)"><linearGradient id="c" gradientUnits="userSpaceOnUse" x1="161.171" y1="711.64" x2="1002.317" y2="711.64" gradientTransform="matrix(.707 .707 .707 -.707 -312.145 717.988)"><stop offset="0" stop-color="#B07EB7"/><stop offset=".5" stop-color="#8C3D96"/><stop offset="1" stop-color="#762A90"/></linearGradient><path fill="url(#c)" stroke="#fff" d="M1181.823 613.856s16.541-13.664 15.716-.592c-.861 13.08-1.905 15.354-9.038 21.105-13.699 11.041-74.053 39.459-110.217 51.219-15.772 5.01-37.404 10.193-55.488 12.73-21.851 3.073-40.042 3.073-56.515 4.713-38.226 3.801-99.688-1.248-99.688-1.248s-23.571.883-36.437-9.943c0 0-27.434 5.652-26.521-2.775.915-8.432-14.682 3.77-14.682 3.77s-27.396 11.474-39.374-11.268c0 0-8.977-15.637-22.659-8.73-13.656 6.902-51.889 15.033-60.046-17.133 0 0 5.615-27.463-11.886-11.17 0 0-108.608 36.32-136.246-82.396 0 0-3.146-21.033-18.855-21.633-15.695-.568-30.348 7.834-39.472-22.852-9.138-30.662-19.732-8.527-19.732-8.527s-22.366 21.424-59.019-15.188c-36.673-36.593-160.902 8.443-199.399 89.918 0 0 99.9-231.107 429.688-23.811 0 0 119.973 126.25 203.271 110.029 0 0 24.54-.055 2.888-7.935-21.679-7.884-66.828-10.239-83.781-35.978 0 0-44.228-4.988-71.175-52.975-26.978-47.996-113.667-82.982-113.667-82.982s-79.387-88.615-281.975-24.396c0 0-78.234 30.791-125.885 80.453-47.62 49.652-127.658 94.999-142.441 88.322 0 0 15.705.574 32.188-20.067 16.506-20.642 46.635-50.479 56.441-49.095 0 0 24.23-36.02 48.551-59.278 0 0 11.756-1.597 20.489-10.327 8.791-8.765 43.686-52.99 43.686-52.99s42.579-66.57 94.854-38.681c52.286 27.89 20.729 11.688 20.729 11.688s15.805 11.004 18.604-6.213c2.77-17.207 30.356-7.828 30.356-7.828s20.6-1.063 42.27 6.813c21.672 7.882 17.825 18.462 35.239-7.12 17.451-25.615 33.515 12.055 33.515 12.055s13.967 24.416 35.262-9.457c21.271-33.875 98.393 26.441 87.093 75.568 0 0 35.216-10.601 32.688 34.444 0 0 5.1 18.062 16.835 14.151 11.732-3.928 21.716 12.498 21.781 18.31.048 5.802 29.345-13.306 46.132 2.021 16.857 15.308 43.532 31.969 73.433 80.146 0 0 10.887 11.461 25.641 14.687 14.754 3.207 48.211 9.479 53.304 31.049 5.129 21.558 170.071-1.551 170.071-1.551s72.543-12.016 143.473-59.052z"/><linearGradient id="d" gradientUnits="userSpaceOnUse" x1="161.172" y1="711.635" x2="1002.316" y2="711.635" gradientTransform="matrix(.707 .707 .707 -.707 -312.145 717.988)"><stop offset="0" stop-color="#F074AC"/><stop offset=".5" stop-color="#EB008B"/><stop offset="1" stop-color="#CD118C"/></linearGradient><path fill="url(#d)" stroke="#fff" d="M590.13 1205.553s-13.676 16.549-.599 15.723c13.09-.865 15.36-1.906 21.104-9.049 11.053-13.688 39.466-74.053 51.229-110.213 5-15.77 10.188-37.393 12.73-55.484 3.06-21.846 3.07-40.041 4.699-56.521 3.812-38.219-1.237-99.688-1.237-99.688s.875-23.562-9.946-36.438c0 0 5.654-27.424-2.773-26.518-8.429.912 3.76-14.683 3.76-14.683s11.479-27.399-11.253-39.366c0 0-15.64-8.98-8.737-22.67 6.908-13.666 15.025-51.88-17.145-60.037 0 0-27.452 5.609-11.16-11.893 0 0 36.317-108.604-82.4-136.232 0 0-21.031-3.158-21.626-18.865-.569-15.695 7.829-30.34-22.854-39.476-30.663-9.14-8.526-19.729-8.526-19.729s21.438-22.375-15.178-59.018c-36.597-36.674 8.438-160.9 89.908-199.396 0 0-231.098 99.894-23.801 429.679 0 0 126.243 119.994 110.021 203.281 0 0-.047 24.535-7.933 2.875-7.865-21.684-10.233-66.817-35.979-83.772 0 0-4.986-44.224-52.974-71.175-47.983-26.974-82.97-113.673-82.97-113.673s-88.622-79.375-24.403-281.961c0 0 30.792-78.238 80.456-125.885 49.646-47.624 94.981-127.663 88.305-142.444 0 0 .581 15.699-20.062 32.188-20.635 16.504-50.469 46.623-49.084 56.431 0 0-36.027 24.23-59.277 48.552 0 0-1.598 11.758-10.342 20.5-8.752 8.78-52.979 43.682-52.979 43.682s-66.579 42.579-38.681 94.847c27.896 52.292 11.688 20.734 11.688 20.734s11.004 15.799-6.212 18.604c-17.207 2.767-7.828 30.354-7.828 30.354s-1.065 20.602 6.812 42.27c7.878 21.67 18.466 17.828-7.123 35.246-25.604 17.441 12.058 33.51 12.058 33.51s24.404 13.975-9.455 35.255c-33.877 21.278 26.442 98.396 75.562 87.104 0 0-10.592 35.213 34.454 32.676 0 0 18.053 5.104 14.148 16.836-3.92 11.746 12.491 21.727 18.309 21.789 5.809.043-13.302 29.336 2.021 46.119 15.311 16.875 31.972 43.549 80.144 73.443 0 0 11.476 10.887 14.683 25.652 3.218 14.734 9.486 48.197 31.062 53.277 21.546 5.135-1.544 170.074-1.544 170.074s-12.036 72.557-59.072 143.485z"/><linearGradient id="e" gradientUnits="userSpaceOnUse" x1="151.526" y1="713.331" x2="992.682" y2="713.331" gradientTransform="matrix(.707 .707 .707 -.707 -312.145 717.988)"><stop offset="0" stop-color="#D471AD"/><stop offset=".5" stop-color="#C7158C"/><stop offset="1" stop-color="#9D248E"/></linearGradient><path fill="url(#e)" stroke="#fff" d="M17.364 630.401s-16.541 13.674-15.708.588c.86-13.086 1.908-15.359 9.042-21.104 13.685-11.036 74.053-39.457 110.214-51.215 15.765-5.006 37.393-10.188 55.49-12.74 21.838-3.061 40.046-3.07 56.521-4.704 38.223-3.806 99.688 1.243 99.688 1.243s23.56-.875 36.431 9.945c0 0 27.434-5.652 26.521 2.783-.914 8.428 14.675-3.765 14.675-3.765s27.401-11.481 39.381 11.259c0 0 8.978 15.633 22.662 8.73 13.663-6.905 51.875-15.03 60.034 17.145 0 0-5.604 27.45 11.893 11.155 0 0 108.614-36.308 136.245 82.403 0 0 3.15 21.033 18.855 21.623 15.697.574 30.351-7.832 39.472 22.859 9.135 30.664 19.727 8.523 19.727 8.523s22.374-21.438 59.021 15.186c36.675 36.586 160.906-8.439 199.398-89.912 0 0-99.887 231.102-429.68 23.803 0 0-119.982-126.239-203.272-110.021 0 0-24.544.039-2.885 7.931 21.677 7.873 66.828 10.233 83.785 35.975 0 0 44.22 4.99 71.172 52.979 26.968 47.977 113.673 82.971 113.673 82.971s79.384 88.625 281.952 24.404c0 0 78.242-30.8 125.889-80.461 47.631-49.645 127.667-94.982 142.446-88.295 0 0-15.688-.576-32.188 20.055-16.507 20.639-46.627 50.469-56.434 49.09 0 0-24.229 36.015-48.558 59.277 0 0-11.752 1.602-20.494 10.342-8.784 8.748-43.677 52.979-43.677 52.979s-42.581 66.575-94.856 38.679c-52.284-27.89-20.729-11.689-20.729-11.689s-15.801-10.998-18.604 6.215c-2.765 17.211-30.354 7.83-30.354 7.83s-20.602 1.062-42.277-6.811c-21.657-7.883-17.821-18.461-35.238 7.123-17.434 25.612-33.501-12.061-33.501-12.061s-13.978-24.398-35.263 9.455c-21.287 33.882-98.402-26.438-87.104-75.561 0 0-35.215 10.588-32.676-34.455 0 0-5.108-18.049-16.833-14.146-11.749 3.92-21.724-12.503-21.789-18.312-.044-5.799-29.333 13.303-46.125-2.019-16.876-15.308-43.541-31.972-73.431-80.146 0 0-10.896-11.479-25.656-14.685-14.746-3.213-48.199-9.491-53.289-31.062-5.136-21.545-170.07 1.549-170.07 1.549s-72.565 12.03-143.496 59.065z"/><linearGradient id="f" gradientUnits="userSpaceOnUse" x1="151.525" y1="713.336" x2="992.676" y2="713.336" gradientTransform="matrix(.707 .707 .707 -.707 -312.145 717.988)"><stop offset="0" stop-color="#5B57A5"/><stop offset=".5" stop-color="#2E3092"/><stop offset="1" stop-color="#474374"/></linearGradient><path fill="url(#f)" stroke="#fff" d="M609.062 38.701s13.68-16.546.597-15.699c-13.084.852-15.362 1.896-21.105 9.022-11.048 13.702-39.458 74.055-51.218 110.219-5.014 15.766-10.197 37.398-12.732 55.491-3.068 21.841-3.072 40.038-4.705 56.513-3.811 38.229 1.246 99.692 1.246 99.692s-.893 23.567 9.938 36.429c0 0-5.652 27.438 2.779 26.525 8.433-.915-3.767 14.678-3.767 14.678s-11.478 27.398 11.264 39.381c0 0 15.638 8.969 8.728 22.664-6.896 13.662-15.026 51.877 17.138 60.03 0 0 27.471-5.606 11.164 11.886 0 0-36.311 108.617 82.409 136.252 0 0 21.025 3.156 21.624 18.848.572 15.714-7.828 30.357 22.852 39.48 30.658 9.145 8.526 19.739 8.526 19.739s-21.435 22.354 15.188 59.013c36.592 36.666-8.441 160.895-89.911 199.396 0 0 231.097-99.896 23.802-429.684 0 0-126.241-119.984-110.026-203.271 0 0 .052-24.541 7.936-2.891 7.875 21.682 10.229 66.834 35.975 83.789 0 0 4.989 44.221 52.979 71.174 47.982 26.967 82.972 113.666 82.972 113.666s88.625 79.375 24.396 281.967c0 0-30.785 78.23-80.449 125.891-49.646 47.621-94.99 127.666-88.312 142.438 0 0-.567-15.695 20.063-32.188 20.639-16.502 50.479-46.627 49.089-56.439 0 0 36.028-24.229 59.288-48.549 0 0 1.585-11.756 10.321-20.491 8.762-8.784 52.992-43.685 52.992-43.685s66.576-42.578 38.686-94.854c-27.897-52.286-11.698-20.737-11.698-20.737s-10.993-15.793 6.216-18.604c17.208-2.766 7.829-30.354 7.829-30.354s1.073-20.609-6.814-42.267c-7.873-21.675-18.453-17.839 7.125-35.255 25.616-17.443-12.05-33.491-12.05-33.491s-24.418-13.979 9.45-35.271c33.873-21.272-26.438-98.399-75.573-87.096 0 0 10.604-35.227-34.439-32.686 0 0-18.062-5.102-14.146-16.834 3.912-11.75-12.49-21.715-18.316-21.78-5.8-.05 13.305-29.347-2.017-46.13-15.31-16.877-31.977-43.543-80.146-73.432 0 0-11.473-10.895-14.69-25.66-3.206-14.734-9.479-48.193-31.048-53.279-21.556-5.135 1.559-170.08 1.559-170.08s12.003-72.542 59.031-143.476z"/><linearGradient id="g" gradientUnits="userSpaceOnUse" x1="-279.878" y1="2612.84" x2="561.264" y2="2612.84" gradientTransform="matrix(-.707 .707 .707 .707 -1152.466 -1322.081)"><stop offset="0" stop-color="#B07EB7"/><stop offset=".5" stop-color="#8C3D96"/><stop offset="1" stop-color="#762A90"/></linearGradient><path fill="url(#g)" stroke="#fff" d="M607.872 1204.366s13.669 16.541.589 15.701c-13.079-.852-15.359-1.9-21.099-9.037-11.062-13.688-39.473-74.052-51.229-110.207-5.009-15.779-10.197-37.394-12.729-55.482-3.073-21.855-3.073-40.045-4.708-56.526-3.806-38.224 1.248-99.688 1.248-99.688s-.886-23.567 9.942-36.428c0 0-5.657-27.427 2.777-26.521 8.426.921-3.772-14.676-3.772-14.676s-11.469-27.408 11.266-39.385c0 0 15.638-8.972 8.729-22.658-6.895-13.66-15.022-51.883 17.138-60.043 0 0 27.469 5.619 11.176-11.883 0 0-36.324-108.609 82.395-136.242 0 0 21.033-3.156 21.632-18.856.564-15.698-7.832-30.353 22.852-39.479 30.658-9.139 8.525-19.732 8.525-19.732s-21.424-22.363 15.187-59.016c36.594-36.678-8.449-160.9-89.918-199.393 0 0 231.104 99.895 23.811 429.684 0 0-126.244 119.973-110.027 203.264 0 0 .054 24.55 7.939 2.891 7.872-21.682 10.229-66.822 35.962-83.785 0 0 4.989-44.224 52.979-71.172 47.995-26.963 82.988-113.66 82.988-113.66s88.609-79.381 24.392-281.973c0 0-30.787-78.236-80.457-125.885-49.647-47.629-94.991-127.667-88.312-142.451 0 0-.57 15.71 20.062 32.197 20.638 16.503 50.479 46.628 49.088 56.438 0 0 36.031 24.224 59.281 48.552 0 0 1.604 11.756 10.333 20.489 8.763 8.786 52.987 43.686 52.987 43.686s66.582 42.576 38.686 94.85c-27.896 52.291-11.7 20.736-11.7 20.736s-10.993 15.796 6.222 18.604c17.205 2.765 7.83 30.354 7.83 30.354s1.062 20.598-6.812 42.271c-7.878 21.666-18.467 17.816 7.114 35.234 25.605 17.449-12.052 33.509-12.052 33.509s-24.409 13.979 9.457 35.265c33.873 21.276-26.441 98.395-75.56 87.1 0 0 10.598 35.213-34.453 32.676 0 0-18.058 5.105-14.146 16.834 3.908 11.744-12.515 21.721-18.318 21.796-5.804.046 13.306 29.337-2.016 46.118-15.312 16.88-31.979 43.545-80.147 73.434 0 0-11.47 10.893-14.685 25.652-3.209 14.738-9.489 48.197-31.054 53.289-21.555 5.134 1.549 170.078 1.549 170.078s12.019 72.548 59.058 143.476z"/><linearGradient id="h" gradientUnits="userSpaceOnUse" x1="-279.882" y1="2612.838" x2="561.265" y2="2612.838" gradientTransform="matrix(-.707 .707 .707 .707 -1152.466 -1322.081)"><stop offset="0" stop-color="#F074AC"/><stop offset=".5" stop-color="#EB008B"/><stop offset="1" stop-color="#CD118C"/></linearGradient><path fill="url(#h)" stroke="#fff" d="M16.168 612.662s-16.548-13.67-15.712-.598c.863 13.086 1.91 15.366 9.042 21.105 13.688 11.041 74.059 39.467 110.218 51.23 15.762 4.998 37.388 10.184 55.485 12.729 21.843 3.068 40.044 3.072 56.518 4.711 38.221 3.807 99.689-1.252 99.689-1.252s23.562.879 36.432-9.939c0 0 27.434 5.654 26.521-2.781-.917-8.424 14.673 3.768 14.673 3.768s27.411 11.477 39.386-11.254c0 0 8.971-15.639 22.653-8.742 13.668 6.908 51.88 15.031 60.042-17.145 0 0-5.61-27.441 11.886-11.152 0 0 108.606 36.314 136.245-82.405 0 0 3.146-21.028 18.862-21.623 15.694-.573 30.345 7.827 39.471-22.854 9.14-30.664 19.739-8.531 19.739-8.531s22.363 21.438 59.015-15.176c36.672-36.603 160.898 8.437 199.396 89.91 0 0-99.894-231.104-429.684-23.808 0 0-119.988 126.246-203.267 110.03 0 0-24.556-.057-2.89-7.942 21.679-7.864 66.82-10.231 83.775-35.978 0 0 44.225-4.985 71.178-52.969 26.963-47.988 113.661-82.976 113.661-82.976s79.388-88.626 281.974-24.403c0 0 78.232 30.789 125.884 80.459 47.621 49.647 127.655 94.983 142.451 88.311 0 0-15.705.574-32.202-20.062-16.498-20.646-46.611-50.476-56.435-49.091 0 0-24.22-36.024-48.542-59.278 0 0-11.76-1.597-20.51-10.344-8.775-8.75-43.677-52.979-43.677-52.979s-42.572-66.575-94.851-38.676c-52.283 27.894-20.729 11.688-20.729 11.688s-15.808 11.002-18.614-6.213c-2.766-17.209-30.35-7.83-30.35-7.83s-20.604-1.063-42.277 6.812c-21.655 7.883-17.821 18.463-35.237-7.119-17.439-25.612-33.51 12.05-33.51 12.05s-13.97 24.411-35.256-9.449c-21.275-33.881-98.396 26.438-87.1 75.558 0 0-35.214-10.586-32.682 34.455 0 0-5.104 18.055-16.829 14.145-11.745-3.918-21.722 12.5-21.793 18.312-.045 5.805-29.334-13.295-46.125 2.024-16.871 15.308-43.543 31.967-73.437 80.138 0 0-10.89 11.477-25.656 14.686-14.733 3.217-48.192 9.488-53.277 31.062-5.133 21.539-170.073-1.553-170.073-1.553s-72.547-12.029-143.481-59.061z"/><linearGradient id="i" gradientUnits="userSpaceOnUse" x1="-289.523" y1="2614.521" x2="551.628" y2="2614.521" gradientTransform="matrix(-.707 .707 .707 .707 -1152.466 -1322.081)"><stop offset="0" stop-color="#D471AD"/><stop offset=".5" stop-color="#C7158C"/><stop offset="1" stop-color="#9D248E"/></linearGradient><path fill="url(#i)" stroke="#fff" d="M591.328 39.9s-13.676-16.542-.604-15.712c13.097.867 15.37 1.912 21.115 9.046 11.044 13.682 39.457 74.051 51.218 110.211 5.01 15.765 10.186 37.397 12.73 55.49 3.071 21.838 3.079 40.044 4.715 56.517 3.793 38.225-1.252 99.692-1.252 99.692s.878 23.56-9.936 36.429c0 0 5.645 27.43-2.788 26.521-8.426-.916 3.76 14.671 3.76 14.671s11.486 27.405-11.255 39.382c0 0-15.629 8.979-8.729 22.666 6.904 13.663 15.021 51.875-17.146 60.029 0 0-27.452-5.605-11.156 11.891 0 0 36.31 108.616-82.403 136.241 0 0-21.031 3.159-21.628 18.864-.565 15.697 7.828 30.342-22.852 39.475-30.665 9.137-8.532 19.73-8.532 19.73s21.438 22.367-15.178 59.017c-36.594 36.675 8.436 160.896 89.901 199.396 0 0-231.097-99.893-23.797-429.684 0 0 126.237-119.984 110.024-203.271 0 0-.041-24.541-7.932-2.885-7.875 21.682-10.243 66.83-35.979 83.783 0 0-4.991 44.225-52.98 71.178-47.979 26.963-82.976 113.668-82.976 113.668s-88.621 79.377-24.396 281.955c0 0 30.795 78.236 80.454 125.889 49.646 47.627 94.991 127.662 88.306 142.443 0 0 .572-15.695-20.058-32.188-20.643-16.505-50.473-46.63-49.085-56.429 0 0-36.024-24.229-59.281-48.562 0 0-1.604-11.746-10.341-20.49-8.745-8.785-52.982-43.683-52.982-43.683s-66.576-42.579-38.676-94.856c27.893-52.287 11.688-20.729 11.688-20.729s10.997-15.795-6.216-18.603c-17.21-2.764-7.829-30.356-7.829-30.356s-1.062-20.604 6.812-42.271c7.878-21.662 18.468-17.826-7.122-35.238-25.608-17.444 12.052-33.508 12.052-33.508s24.413-13.981-9.453-35.271c-33.879-21.276 26.447-98.396 75.56-87.099 0 0-10.589-35.211 34.455-32.676 0 0 18.057-5.104 14.146-16.83-3.913-11.75 12.498-21.728 18.311-21.791 5.809-.041-13.304-29.334 2.029-46.125 15.303-16.873 31.966-43.537 80.141-73.426 0 0 11.479-10.902 14.678-25.662 3.214-14.742 9.492-48.192 31.064-53.281 21.548-5.13-1.553-170.077-1.553-170.077s-12.009-72.549-59.044-143.481z"/><linearGradient id="j" gradientUnits="userSpaceOnUse" x1="-289.523" y1="2614.533" x2="551.625" y2="2614.533" gradientTransform="matrix(-.707 .707 .707 .707 -1152.466 -1322.081)"><stop offset="0" stop-color="#5B57A5"/><stop offset=".5" stop-color="#2E3092"/><stop offset="1" stop-color="#474374"/></linearGradient><path fill="url(#j)" stroke="#fff" d="M1183.021 631.606s16.549 13.663 15.713.59c-.858-13.084-1.905-15.365-9.038-21.105-13.689-11.049-74.05-39.467-110.218-51.219-15.771-5.014-37.396-10.197-55.484-12.736-21.843-3.066-40.035-3.077-56.518-4.704-38.226-3.806-99.703 1.245-99.703 1.245s-23.556-.889-36.411 9.941c0 0-27.438-5.656-26.529 2.774.911 8.433-14.676-3.767-14.676-3.767s-27.411-11.467-39.386 11.262c0 0-8.968 15.641-22.66 8.73-13.657-6.9-51.872-15.029-60.031 17.135 0 0 5.614 27.469-11.887 11.17 0 0-108.619-36.311-136.249 82.398 0 0-3.157 21.033-18.853 21.627-15.707.572-30.354-7.826-39.481 22.85-9.144 30.666-19.732 8.525-19.732 8.525s-22.363-21.424-59.01 15.188c-36.676 36.597-160.904-8.438-199.401-89.918 0 0 99.897 231.114 429.683 23.812 0 0 119.983-126.244 203.275-110.035 0 0 24.54.058 2.886 7.939-21.685 7.879-66.828 10.23-83.779 35.975 0 0-44.229 4.986-71.188 52.984-26.96 47.975-113.659 82.969-113.659 82.969s-79.379 88.627-281.972 24.399c0 0-78.234-30.791-125.884-80.462-47.625-49.634-127.663-94.975-142.444-88.296 0 0 15.701-.576 32.193 20.061 16.501 20.645 46.629 50.479 56.439 49.094 0 0 24.227 36.014 48.549 59.287 0 0 11.754 1.594 20.493 10.316 8.789 8.77 43.688 52.992 43.688 52.992s42.572 66.578 94.849 38.686c52.287-27.896 20.737-11.693 20.737-11.693s15.792-10.998 18.602 6.217c2.771 17.199 30.355 7.824 30.355 7.824s20.601 1.07 42.261-6.808c21.675-7.886 17.838-18.466 35.25 7.116 17.444 25.609 33.499-12.047 33.499-12.047s13.981-24.422 35.271 9.451c21.274 33.871 98.396-26.443 87.096-75.57 0 0 35.222 10.602 32.68-34.441 0 0 5.104-18.066 16.834-14.154 11.748 3.92 21.714-12.494 21.785-18.307.051-5.809 29.345 13.307 46.129-2.027 16.878-15.299 43.544-31.977 73.435-80.137 0 0 10.896-11.477 25.662-14.689 14.729-3.209 48.188-9.485 53.279-31.049 5.126-21.555 170.08 1.549 170.08 1.549s72.547 12.025 143.47 59.058z"/><linearGradient id="k" gradientUnits="userSpaceOnUse" x1="334.324" y1="1753.647" x2="1175.459" y2="1753.647" gradientTransform="matrix(0 1 1 0 -1154.9 -127.938)"><stop offset="0" stop-color="#F69453"/><stop offset=".5" stop-color="#F37521"/><stop offset="1" stop-color="#D4622A"/></linearGradient><path fill="url(#k)" stroke="#fff" d="M1017.148 1027.979s21.36 2.03 11.522 10.688c-9.854 8.646-12.207 9.519-21.312 8.533-17.504-1.861-80.266-24.463-114.146-41.709-14.71-7.615-33.662-19.238-48.254-30.232-17.611-13.273-30.487-26.146-43.289-36.637-29.717-24.34-69.605-71.381-69.605-71.381s-17.29-16.037-18.729-32.791c0 0-23.399-15.386-16.798-20.709 6.612-5.324-13.042-7.722-13.042-7.722s-27.481-11.261-19.882-35.81c0 0 4.715-17.397-9.844-22.198-14.547-4.776-47.313-26.062-30.342-54.565 0 0 23.396-15.453-.506-16.306 0 0-102.479-51.125-38.079-154.603 0 0 12.642-17.104 1.97-28.629-10.702-11.508-27.008-15.929-11.762-44.074 15.224-28.146-7.918-19.981-7.918-19.981s-30.973-.659-30.995-52.463c-.06-51.808-119.745-107.812-204.573-77.42 0 0 234.055-92.776 320.666 287 0 0-4.438 174.104 65.93 221.532 0 0 17.391 17.32 7.654-3.567-9.766-20.899-40.027-54.487-33.81-84.683 0 0-27.746-34.799-12.871-87.784 14.862-52.998-21.689-139.052-21.689-139.052s6.523-118.793-182.141-216.636c0 0-77.088-33.543-145.903-32.114-68.777 1.424-157.438-23.108-163.167-38.28 0 0 10.703 11.505 36.949 8.572 26.266-2.921 68.664-2.718 74.625 5.191 0 0 42.597-8.339 76.247-7.585 0 0 9.443 7.183 21.793 7.183 12.407.021 68.357-6.575 68.357-6.575s77.18-16.964 94.42 39.721c17.253 56.7 6.396 22.926 6.396 22.926s3.396 18.952 17.555 8.763c14.125-10.218 26.998 15.922 26.998 15.922s15.315 13.821 25.062 34.711c9.766 20.896-.438 25.664 29.96 19.888 30.45-5.773 15.166 32.217 15.166 32.217s-7.376 27.141 31.622 18.246c39.004-8.91 50.886 88.273 8.161 115.02 0 0 32.396 17.41-1.257 47.461 0 0-9.155 16.386 1.896 21.914 11.087 5.533 6.524 24.197 2.465 28.355-4.071 4.131 30.151 11.34 31.188 34.038 1.104 22.763 8.17 53.399-4.747 108.599 0 0-.412 15.813 7.758 28.522 8.145 12.688 27.372 40.798 15.719 59.642-11.605 18.866 121.356 119.168 121.356 119.168s59.808 42.792 143.226 59.694z"/><linearGradient id="l" gradientUnits="userSpaceOnUse" x1="334.324" y1="1753.65" x2="1175.459" y2="1753.65" gradientTransform="matrix(0 1 1 0 -1154.9 -127.938)"><stop offset="0" stop-color="#F37F7B"/><stop offset=".5" stop-color="#ED3D57"/><stop offset="1" stop-color="#DD1E47"/></linearGradient><path fill="url(#l)" stroke="#fff" d="M180.363 1027.979s-21.371 2.03-11.536 10.688c9.865 8.646 12.208 9.519 21.318 8.533 17.49-1.861 80.266-24.463 114.153-41.709 14.689-7.615 33.646-19.238 48.24-30.232 17.612-13.273 30.489-26.146 43.293-36.637 29.72-24.34 69.609-71.381 69.609-71.381s17.282-16.037 18.726-32.791c0 0 23.403-15.386 16.795-20.709-6.609-5.324 13.031-7.722 13.031-7.722s27.499-11.261 19.887-35.81c0 0-4.708-17.397 9.85-22.198 14.546-4.776 47.312-26.062 30.337-54.565 0 0-23.378-15.453.519-16.306 0 0 102.467-51.125 38.061-154.603 0 0-12.636-17.104-1.953-28.629 10.696-11.508 27.002-15.929 11.761-44.074-15.229-28.146 7.915-19.981 7.915-19.981s30.979-.659 30.997-52.463c.061-51.808 119.737-107.812 204.566-77.42 0 0-234.049-92.776-320.659 287 0 0 4.427 174.104-65.936 221.532 0 0-17.388 17.32-7.646-3.567 9.765-20.899 40.015-54.487 33.804-84.683 0 0 27.74-34.799 12.865-87.784-14.856-52.998 21.707-139.052 21.707-139.052s-6.534-118.793 182.121-216.636c0 0 77.1-33.543 145.908-32.114 68.773 1.424 157.443-23.108 163.166-38.28 0 0-10.695 11.505-36.947 8.572-26.269-2.921-68.654-2.718-74.614 5.191 0 0-42.607-8.339-76.241-7.585 0 0-9.443 7.183-21.811 7.183-12.4.021-68.354-6.575-68.354-6.575s-77.186-16.964-94.409 39.721c-17.258 56.7-6.404 22.926-6.404 22.926s-3.396 18.952-17.555 8.763c-14.119-10.218-26.993 15.922-26.993 15.922s-15.32 13.821-25.072 34.711c-9.745 20.896.449 25.664-29.956 19.888-30.441-5.773-15.17 32.217-15.17 32.217s7.379 27.141-31.617 18.246c-39.004-8.91-50.878 88.273-8.16 115.02 0 0-32.389 17.41 1.257 47.461 0 0 9.155 16.386-1.896 21.914-11.075 5.533-6.525 24.197-2.472 28.355 4.082 4.131-30.141 11.34-31.177 34.038-1.106 22.763-8.184 53.399 4.739 108.599 0 0 .413 15.813-7.758 28.522-8.149 12.688-27.37 40.798-15.708 59.642 11.599 18.865-121.362 119.168-121.362 119.168s-59.806 42.792-143.219 59.694z"/><linearGradient id="m" gradientUnits="userSpaceOnUse" x1="324.679" y1="1755.344" x2="1165.807" y2="1755.344" gradientTransform="matrix(0 1 1 0 -1154.9 -127.938)"><stop offset="0" stop-color="#F37E5F"/><stop offset=".5" stop-color="#EC1C24"/><stop offset="1" stop-color="#CF232A"/></linearGradient><path fill="url(#m)" stroke="#fff" d="M182.051 216.284s-21.364-2.038-11.53-10.686c9.859-8.647 12.213-9.519 21.317-8.538 17.491 1.866 80.266 24.462 114.154 41.719 14.685 7.606 33.643 19.23 48.241 30.226 17.605 13.277 30.486 26.139 43.291 36.639 29.714 24.34 69.607 71.374 69.607 71.374s17.282 16.029 18.729 32.787c0 0 23.396 15.398 16.789 20.721-6.604 5.312 13.032 7.717 13.032 7.717s27.5 11.264 19.888 35.805c0 0-4.706 17.404 9.846 22.201 14.553 4.775 47.315 26.057 30.339 54.57 0 0-23.386 15.449.521 16.295 0 0 102.467 51.133 38.061 154.609 0 0-12.633 17.1-1.957 28.631 10.698 11.49 27.002 15.916 11.752 44.064-15.222 28.148 7.916 19.986 7.916 19.986s30.985.658 31.011 52.467c.057 51.807 119.729 107.805 204.562 77.418 0 0-234.048 92.779-320.657-287.006 0 0 4.424-174.105-65.937-221.527 0 0-17.391-17.322-7.646 3.57 9.762 20.895 40.013 54.485 33.801 84.68 0 0 27.739 34.799 12.867 87.793-14.854 52.988 21.705 139.043 21.705 139.043s-6.535 118.799 182.124 216.631c0 0 77.104 33.55 145.9 32.125 68.779-1.428 157.441 23.104 163.175 38.271 0 0-10.688-11.504-36.949-8.564-26.268 2.92-68.656 2.715-74.615-5.189 0 0-42.598 8.334-76.25 7.584 0 0-9.44-7.188-21.801-7.189-12.4-.018-68.352 6.576-68.352 6.576s-77.188 16.979-94.431-39.715c-17.237-56.699-6.391-22.928-6.391-22.928s-3.388-18.949-17.552-8.76c-14.119 10.203-26.997-15.924-26.997-15.924s-15.323-13.819-25.071-34.721c-9.75-20.887.449-25.662-29.952-19.879-30.443 5.77-15.174-32.213-15.174-32.213s7.378-27.146-31.617-18.256c-39.007 8.91-50.881-88.271-8.161-115.014 0 0-32.387-17.418 1.263-47.479 0 0 9.15-16.367-1.898-21.9-11.08-5.535-6.526-24.188-2.47-28.354 4.078-4.139-30.143-11.342-31.176-34.051-1.109-22.756-8.188-53.395 4.739-108.588 0 0 .409-15.814-7.761-28.523-8.152-12.699-27.375-40.794-15.709-59.641 11.604-18.869-121.361-119.169-121.361-119.169s-59.795-42.794-143.215-59.688z"/><linearGradient id="n" gradientUnits="userSpaceOnUse" x1="324.679" y1="1755.344" x2="1165.807" y2="1755.344" gradientTransform="matrix(0 1 1 0 -1154.9 -127.938)"><stop offset="0" stop-color="#FFE7A3"/><stop offset=".5" stop-color="#FFCA05"/><stop offset="1" stop-color="#FAAC18"/></linearGradient><path fill="url(#n)" stroke="#fff" d="M1018.842 216.284s21.355-2.038 11.521-10.686c-9.852-8.647-12.199-9.519-21.312-8.538-17.491 1.866-80.264 24.462-114.145 41.719-14.693 7.606-33.652 19.23-48.237 30.226-17.628 13.277-30.491 26.139-43.297 36.639-29.721 24.34-69.609 71.374-69.609 71.374s-17.291 16.029-18.724 32.787c0 0-23.401 15.398-16.792 20.721 6.604 5.312-13.05 7.717-13.05 7.717s-27.482 11.264-19.882 35.805c0 0 4.716 17.404-9.851 22.201-14.538 4.775-47.312 26.057-30.336 54.57 0 0 23.394 15.449-.51 16.295 0 0-102.48 51.133-38.076 154.609 0 0 12.641 17.1 1.966 28.631-10.704 11.49-27.011 15.916-11.764 44.064 15.224 28.148-7.92 19.986-7.92 19.986s-30.964.658-30.991 52.467c-.054 51.807-119.743 107.805-204.578 77.418 0 0 234.055 92.779 320.67-287.006 0 0-4.432-174.105 65.933-221.527 0 0 17.396-17.322 7.653 3.57-9.761 20.895-40.021 54.485-33.812 84.68 0 0-27.742 34.799-12.863 87.793 14.866 52.988-21.7 139.043-21.7 139.043s6.533 118.799-182.132 216.631c0 0-77.087 33.55-145.907 32.125-68.774-1.428-157.438 23.104-163.162 38.271 0 0 10.698-11.504 36.948-8.564 26.268 2.92 68.667 2.715 74.62-5.189 0 0 42.604 8.334 76.249 7.584 0 0 9.444-7.188 21.798-7.189 12.407-.018 68.358 6.576 68.358 6.576s77.179 16.979 94.418-39.715c17.253-56.699 6.393-22.928 6.393-22.928s3.396-18.949 17.561-8.76c14.114 10.203 26.997-15.924 26.997-15.924s15.312-13.819 25.065-34.721c9.749-20.887-.451-25.662 29.956-19.879 30.441 5.77 15.161-32.213 15.161-32.213s-7.371-27.146 31.631-18.256c38.994 8.91 50.881-88.271 8.148-115.014 0 0 32.393-17.418-1.249-47.479 0 0-9.163-16.367 1.902-21.9 11.077-5.535 6.52-24.188 2.459-28.354-4.07-4.139 30.149-11.342 31.181-34.051 1.11-22.756 8.186-53.395-4.746-108.588 0 0-.404-15.814 7.761-28.523 8.156-12.699 27.367-40.794 15.717-59.641-11.605-18.869 121.363-119.169 121.363-119.169s59.8-42.794 143.216-59.688z"/><linearGradient id="o" gradientUnits="userSpaceOnUse" x1="319.519" y1="1747.732" x2="1184.542" y2="1747.732" gradientTransform="matrix(0 1 1 0 -1154.9 -127.938)"><stop offset="0" stop-color="#2BC4F3"/><stop offset=".5" stop-color="#00AEEE"/><stop offset="1" stop-color="#0095DA"/></linearGradient><path fill="url(#o)" stroke="#fff" d="M30.492 1042.489s-2.858 21.366-14.987 11.523c-12.12-9.855-13.34-12.215-11.971-21.318 2.623-17.496 34.305-80.268 58.499-114.146 10.673-14.682 26.973-33.657 42.392-48.246 18.614-17.607 36.661-30.486 51.368-43.293 34.129-29.717 100.089-69.605 100.089-69.605s22.48-17.285 45.976-18.729c0 0 21.59-23.391 29.051-16.791 7.454 6.615 10.821-13.041 10.821-13.041s15.797-27.488 50.211-19.877c0 0 24.401 4.707 31.129-9.85 6.694-14.543 36.546-47.312 76.522-30.342 0 0 21.667 23.389 22.858-.51 0 0 71.691-102.477 216.799-38.068 0 0 23.979 12.637 40.14 1.963 16.124-10.705 22.324-27.008 61.798-11.76 39.469 15.223 28.027-7.922 28.027-7.922s.928-30.977 73.568-30.99c72.646-.064 151.173-119.746 108.562-204.578 0 0 130.097 234.051-402.445 320.66 0 0-244.149-4.42-310.648 65.938 0 0-24.29 17.387 5.001 7.652 29.305-9.762 76.409-40.014 118.75-33.812 0 0 48.787-27.74 123.095-12.861 74.319 14.854 194.979-21.703 194.979-21.703s166.58 6.533 303.771-182.129c0 0 47.05-77.09 45.053-145.906-2.01-68.775 32.396-157.438 53.674-163.165 0 0-16.136 10.696-12.021 36.947 4.105 26.266 3.812 68.664-7.28 74.622 0 0 11.688 42.602 10.639 76.251 0 0-10.074 9.438-10.074 21.795-.034 12.404 9.214 68.354 9.214 68.354s23.799 77.18-55.688 94.419c-79.496 17.247-32.162 6.392-32.162 6.392s-26.562 3.395-12.274 17.561c14.323 14.117-22.332 26.994-22.332 26.994s-19.372 15.324-48.665 25.068c-29.304 9.752-35.989-.447-27.89 29.953 8.104 30.45-45.169 15.174-45.169 15.174s-38.069-7.375-25.594 31.623c12.493 39.002-123.784 50.875-161.286 8.148 0 0-24.409 32.396-66.564-1.252 0 0-22.972-9.148-30.711 1.895-7.765 11.086-33.936 6.528-39.758 2.473-5.812-4.072-15.902 30.138-47.753 31.186-31.909 1.113-74.865 8.178-152.271-4.746 0 0-22.179-.404-39.995 7.754-17.8 8.156-57.199 27.379-83.636 15.723-26.449-11.605-167.095 121.354-167.095 121.354s-60.029 59.796-83.717 143.218z"/><linearGradient id="p" gradientUnits="userSpaceOnUse" x1="319.519" y1="1747.732" x2="1184.54" y2="1747.732" gradientTransform="matrix(0 1 1 0 -1154.9 -127.938)"><stop offset=".011" stop-color="#3EB0CA"/><stop offset=".5" stop-color="#0099B9"/><stop offset=".994" stop-color="#007C84"/></linearGradient><path fill="url(#p)" stroke="#fff" d="M30.492 205.696s-2.858-21.361-14.987-11.525c-12.12 9.854-13.34 12.209-11.971 21.312 2.623 17.495 34.305 80.267 58.499 114.151 10.673 14.688 26.973 33.65 42.392 48.242 18.614 17.617 36.661 30.488 51.368 43.297 34.129 29.718 100.089 69.609 100.089 69.609s22.48 17.289 45.976 18.727c0 0 21.59 23.396 29.051 16.793 7.454-6.609 10.821 13.031 10.821 13.031s15.797 27.498 50.211 19.892c0 0 24.401-4.72 31.129 9.847 6.694 14.543 36.546 47.312 76.522 30.332 0 0 21.667-23.386 22.858.51 0 0 71.691 102.482 216.799 38.074 0 0 23.979-12.638 40.14-1.959 16.124 10.694 22.324 27.006 61.798 11.754 39.469-15.215 28.027 7.926 28.027 7.926s.928 30.97 73.568 30.994c72.646.062 151.173 119.742 108.562 204.578 0 0 130.097-234.055-402.445-320.67 0 0-244.149 4.422-310.648-65.934 0 0-24.29-17.385 5.001-7.648 29.305 9.764 76.409 40.018 118.75 33.801 0 0 48.787 27.746 123.095 12.873 74.319-14.859 194.979 21.703 194.979 21.703s166.58-6.533 303.771 182.125c0 0 47.05 77.09 45.053 145.916-2.01 68.768 32.396 157.428 53.674 163.156 0 0-16.136-10.693-12.021-36.945 4.105-26.271 3.812-68.662-7.28-74.619 0 0 11.688-42.604 10.639-76.256 0 0-10.074-9.438-10.074-21.797-.034-12.402 9.214-68.355 9.214-68.355s23.799-77.178-55.688-94.418c-79.496-17.252-32.162-6.391-32.162-6.391s-26.562-3.396-12.274-17.558c14.323-14.12-22.332-27.002-22.332-27.002s-19.372-15.312-48.665-25.063c-29.304-9.746-35.989.445-27.89-29.953 8.104-30.447-45.169-15.172-45.169-15.172s-38.069 7.375-25.594-31.621c12.493-38.998-123.784-50.881-161.286-8.154 0 0-24.409-32.393-66.564 1.255 0 0-22.972 9.153-30.711-1.899-7.765-11.082-33.936-6.523-39.758-2.461-5.812 4.071-15.902-30.146-47.753-31.188-31.909-1.104-74.865-8.18-152.271 4.75 0 0-22.179.4-39.995-7.766-17.8-8.146-57.199-27.373-83.636-15.713-26.449 11.604-167.095-121.359-167.095-121.359s-60.029-59.807-83.717-143.222z"/><linearGradient id="q" gradientUnits="userSpaceOnUse" x1="321.212" y1="1761.258" x2="1186.231" y2="1761.258" gradientTransform="matrix(0 1 1 0 -1154.9 -127.938)"><stop offset="0" stop-color="#D1E4A5"/><stop offset=".5" stop-color="#ACD479"/><stop offset="1" stop-color="#76B83F"/></linearGradient><path fill="url(#q)" stroke="#fff" d="M1168.699 207.386s2.854-21.361 14.996-11.521c12.111 9.86 13.326 12.205 11.963 21.314-2.622 17.492-34.312 80.262-58.506 114.151-10.664 14.693-26.97 33.643-42.381 48.241-18.621 17.611-36.672 30.489-51.373 43.291-34.135 29.715-100.094 69.605-100.094 69.605s-22.479 17.285-45.969 18.73c0 0-21.59 23.401-29.061 16.791-7.451-6.604-10.813 13.037-10.813 13.037s-15.799 27.498-50.211 19.885c0 0-24.409-4.707-31.133 9.852-6.694 14.541-36.546 47.312-76.521 30.33 0 0-21.674-23.379-22.859.52 0 0-71.691 102.484-216.798 38.066 0 0-23.979-12.641-40.146-1.963-16.123 10.705-22.323 27.002-61.792 11.763-39.465-15.22-28.024 7.914-28.024 7.914s-.923 30.978-73.567 31.009c-72.647.059-151.172 119.729-108.56 204.564 0 0-130.1-234.049 402.444-320.664 0 0 244.146 4.43 310.652-65.932 0 0 24.277-17.396-5.008-7.654-29.307 9.766-76.412 40.021-118.746 33.809 0 0-48.799 27.745-123.104 12.865-74.31-14.855-194.975 21.701-194.975 21.701s-166.583-6.525-303.771 182.131c0 0-47.053 77.098-45.048 145.9 1.999 68.791-32.4 157.438-53.678 163.172 0 0 16.136-10.705 12.022-36.953-4.105-26.262-3.811-68.656 7.281-74.615 0 0-11.693-42.605-10.639-76.247 0 0 10.074-9.444 10.079-21.798.031-12.406-9.217-68.354-9.217-68.354s-23.8-77.183 55.689-94.418c79.501-17.252 32.153-6.402 32.153-6.402s26.571-3.396 12.284-17.553c-14.316-14.121 22.335-26.992 22.335-26.992s19.37-15.315 48.667-25.071c29.299-9.752 35.987.446 27.889-29.953-8.103-30.438 45.167-15.168 45.167-15.168s38.063 7.382 25.592-31.618c-12.496-39.003 123.784-50.882 161.286-8.158 0 0 24.41-32.396 66.562 1.25 0 0 22.97 9.166 30.712-1.9 7.765-11.073 33.938-6.52 39.758-2.461 5.812 4.074 15.905-30.145 47.75-31.18 31.907-1.109 74.866-8.185 152.272 4.748 0 0 22.182.405 40.003-7.763 17.796-8.153 57.189-27.371 83.626-15.72 26.455 11.613 167.098-121.356 167.098-121.356s60.025-59.809 83.714-143.225z"/><linearGradient id="r" gradientUnits="userSpaceOnUse" x1="321.215" y1="1761.258" x2="1186.232" y2="1761.258" gradientTransform="matrix(0 1 1 0 -1154.9 -127.938)"><stop offset="0" stop-color="#64C08A"/><stop offset=".5" stop-color="#00A550"/><stop offset="1" stop-color="#00914C"/></linearGradient><path fill="url(#r)" stroke="#fff" d="M1168.699 1044.178s2.854 21.363 14.996 11.529c12.111-9.854 13.326-12.213 11.963-21.314-2.622-17.49-34.312-80.271-58.506-114.152-10.664-14.689-26.97-33.65-42.381-48.236-18.621-17.617-36.672-30.494-51.373-43.299-34.135-29.721-100.094-69.606-100.094-69.606s-22.479-17.291-45.969-18.726c0 0-21.59-23.401-29.061-16.793-7.451 6.609-10.813-13.037-10.813-13.037s-15.799-27.494-50.211-19.883c0 0-24.409 4.703-31.133-9.854-6.694-14.541-36.546-47.315-76.521-30.331 0 0-21.674 23.387-22.859-.512 0 0-71.691-102.482-216.798-38.075 0 0-23.979 12.644-40.146 1.959-16.123-10.696-22.323-27-61.792-11.755-39.465 15.221-28.024-7.924-28.024-7.924s-.923-30.965-73.567-30.992c-72.647-.055-151.172-119.746-108.56-204.57 0 0-130.1 234.049 402.444 320.664 0 0 244.146-4.432 310.652 65.936 0 0 24.277 17.394-5.008 7.646-29.307-9.761-76.412-40.017-118.746-33.808 0 0-48.799-27.748-123.104-12.863-74.31 14.861-194.975-21.701-194.975-21.701s-166.583 6.535-303.771-182.131c0 0-47.053-77.092-45.048-145.902 1.999-68.785-32.4-157.439-53.678-163.167 0 0 16.136 10.698 12.022 36.95-4.105 26.264-3.811 68.659 7.281 74.617 0 0-11.693 42.603-10.639 76.248 0 0 10.074 9.443 10.079 21.799.031 12.404-9.217 68.357-9.217 68.357s-23.8 77.172 55.688 94.408c79.501 17.25 32.153 6.401 32.153 6.401s26.571 3.392 12.284 17.546c-14.316 14.12 22.335 26.997 22.335 26.997s19.37 15.319 48.667 25.078c29.299 9.75 35.987-.455 27.889 29.942-8.102 30.455 45.167 15.18 45.167 15.18s38.063-7.387 25.592 31.611c-12.496 39.008 123.784 50.885 161.286 8.162 0 0 24.41 32.393 66.562-1.248 0 0 22.97-9.168 30.714 1.896 7.763 11.071 33.938 6.519 39.756 2.452 5.812-4.07 15.905 30.154 47.75 31.188 31.907 1.108 74.866 8.188 152.272-4.748 0 0 22.183-.408 40.003 7.762 17.796 8.152 57.189 27.373 83.626 15.709 26.455-11.6 167.097 121.361 167.097 121.361s60.027 59.813 83.716 143.229z"/></g><linearGradient id="s" gradientUnits="userSpaceOnUse" x1="-989.289" y1="1402.162" x2="74.516" y2="1402.162" gradientTransform="matrix(0 -.122 -1 0 2002.355 532.221)"><stop offset="0" stop-color="#fff"/><stop offset=".904" stop-color="#fff" stop-opacity=".096"/><stop offset="1" stop-color="#fff" stop-opacity="0"/></linearGradient><rect x=".385" y="523.107" fill="url(#s)" width="1199.615" height="130.104"/></svg>