<?xml version="1.0" encoding="utf-8"?>
<!-- Generator: Adobe Illustrator 15.0.2, SVG Export Plug-In . SVG Version: 6.00 Build 0)  -->
<!DOCTYPE svg PUBLIC "-//W3C//DTD SVG 1.1//EN" "http://www.w3.org/Graphics/SVG/1.1/DTD/svg11.dtd">
<svg version="1.1" id="Layer_1" xmlns="http://www.w3.org/2000/svg" xmlns:xlink="http://www.w3.org/1999/xlink" x="0px" y="0px"
	 width="305.059px" height="450.379px" viewBox="0 0 305.059 450.379" enable-background="new 0 0 305.059 450.379"
	 xml:space="preserve">
<g>
	<path fill="#F6863D" stroke="#F9F9FA" stroke-width="0.25" stroke-linecap="round" stroke-linejoin="round" d="M56.301,154.35
		c-0.444-0.267-0.92-0.325-1.426-0.177c-0.483,0.142-0.842,0.449-1.076,0.921s-0.27,0.983-0.107,1.534
		c0.158,0.54,0.465,0.95,0.92,1.231c0.456,0.282,0.925,0.352,1.408,0.209c0.495-0.145,0.858-0.456,1.091-0.934
		c0.231-0.478,0.268-0.991,0.105-1.543C57.051,155.031,56.745,154.616,56.301,154.35z"/>
	<path fill="#F6863D" stroke="#F9F9FA" stroke-width="0.25" stroke-linecap="round" stroke-linejoin="round" d="M304.837,384.385
		l0.063-0.576l-1.029-0.896l-0.353-0.518l-0.321-0.32l-0.58-0.416l-2.664-2.539l-0.448-0.705l-0.164-0.16l-0.642-0.578l-0.128-0.162
		l-0.257-0.354l-0.128-0.127l-0.128-0.064l-0.16-0.064l-0.481-0.062l-0.191-0.098l-0.16-0.225l-0.128-0.288l-0.032-0.549v-0.386
		l0.032-0.031l0.256-0.645l0.257-0.574l-0.288-0.48l-0.063-0.033l-0.064-0.897l-0.32-0.484l-0.419-0.417l-0.353-0.77v-0.289
		l0.192-0.996v-0.354l-0.13-0.225l-0.128-0.195l-1.671-5.039l-0.93-0.289l-0.676-0.545l-0.356-0.867l0.101-1.224l-0.063-0.545
		l-0.196-0.705l-0.319-0.646l-0.481-0.319l-0.513-0.256l-0.192-0.55l0.289-5.07l0.031-0.32l-5.747-6.97l-5.684-7.001l-5.912-7.29
		l-5.488-6.938l-4.853-6.168l-4.849-6.197l-4.817-6.195l-4.787-6.168l-4.782-6.2l-4.783-6.229l-4.758-6.196l-4.719-6.2l-5.459-6.841
		l-5.396-6.841l-5.396-6.842l-5.332-6.873l-5.362-6.84l-5.331-6.871l-5.299-6.873l-5.269-6.874l-6.809-8.254l-6.777-8.252
		l-6.741-8.287l-6.712-8.287l-6.68-8.284l-6.648-8.315l-6.615-8.323l-6.583-8.315l0.096-0.577l0.449-2.346l1.414-7.739l1.38-7.707
		l1.413-7.707l1.414-7.71l1.412-7.709l1.414-7.707l1.412-7.707l1.381-7.707l1.413-7.674l1.413-7.675l1.381-7.709l1.413-7.678
		l1.414-7.675l1.381-7.642l1.411-7.674l1.382-7.643l-8.446-1.577l-8.446-1.571l-8.414-1.577l-8.413-1.635l-8.447-1.606l-8.413-1.67
		l-8.414-1.667l-8.416-1.706l-8.413-1.702l-8.413-1.735l-8.416-1.734l-8.382-1.767l-8.415-1.798l-8.383-1.831l-8.382-1.831
		l-8.384-1.831l-0.159-0.064l-0.899-0.192l0.194,0.837l0.031,0.445l-0.031,0.487l-0.997,3.786l-0.417,0.644l-1.124,1.411
		L17.18,8.671l-0.064,0.256L18.112,9.6l1.35,1.509l0.996,1.674l-0.159,1.186l-0.192,0.641l0.192,1.09l0.159,1.029l0.192,0.452
		l0.064,0.257l-0.258,1.09l-0.063,0.42l0.096,0.414l0.192,0.388l0.258,0.321l0.32,0.26l-0.61,0.641l-0.096,1.346l-0.032,2.635
		l-0.354,1.221l-1.189,2.247l-0.737,2.122l-1.35,2.662l-0.932,1.317L15.253,36l-0.673,0.513l-0.226,0.641l-0.128,0.772l0.032,0.581
		l-0.192,0.577l0.707,1.862l0.128,0.965l-0.256,0.93l-3.309,5.783l-1.959,1.923l-0.547,0.836l0.676-0.192l0.706-0.612l2.023-2.215
		l0.192-0.096l1.316,0.449l0.386-0.093l0.256,0.32l0.128,0.064l-0.737,0.833L13.1,50.064l-0.738-0.032L11.43,50.16l-0.579,0.417
		l-1.188,1.478l-0.449,0.289l-0.45,1.638l-0.449,0.737L7.64,54.206l-0.388-0.513l0.064-0.16l0.354-0.802l0.192-0.288l-1.252,1.058
		l-0.803,0.897l-0.707,1.19l0.031,0.131L5.2,55.941l0.032,0.195l-0.16,0.032H4.943l-0.128,0.096l-0.128,0.129l-0.162,0.449
		l-1.284,1.443l-0.385,0.548l-0.578,1.061l-0.547,1.058l-0.226,0.673l-0.288,0.58L0.736,62.85l-0.354,0.609l-0.031,0.577l0.32,0.994
		l0.387,2.73v1.09l-0.804,1.866l-0.13,0.994l0.418,0.577L0.96,72.64l3.5,4.79l1.574,1.475l0.482,0.705l0.867,2.122l0.032,0.321
		l-0.13,0.961l0.066,0.385l0.224,0.199l0.739,0.446l0.256,0.224l0.835,1.222l3.211,7.802l0.032,0.737l-0.257,1.866l0.128,1.025
		l0.128,0.577l0.161,0.289l0.353,0.228l0.096,0.385l0.064,0.452l0.096,0.449l0.064,0.705l-0.737,2.924l0.385,2.632l-0.191,0.356
		l-0.578,0.289l-0.545,0.833l-0.804,1.766l-0.964,2.824l-0.835,1.382l0.321,1.638l-0.192,0.737l0.225,0.355l0.128,0.641l0.096,1.189
		v1.991l0.128,0.965l0.451,0.481l0.61,3.148l-0.032,0.449l-0.354,1.411l-0.031,0.42l0.128,0.933v0.449l-0.385,1.026l-0.451,0.484
		l-0.545,0.285L8.7,130.257l-0.128,1.286l0.643,1.603l1.768,3.02l1.477,1.798l0.192,0.516l0.161,0.673l0.577,0.801l1.06,1.157
		l0.803,1.253l4.047,8.701l0.899,1.222l3.597,2.956l0.771,1.286l0.32,2.664l0.675,0.997l-0.483,2.087l0.258,0.737l0.032-0.289
		l0.224-0.869l1.671,1.737l0.448,0.802l0.064,0.353v0.833l0.063,0.388l0.707,1.318l1.027,2.892l1.027,1.891l0.354,0.997v1.029
		l-0.418-0.965l-0.706-0.933l-0.578-1.026l-0.063-1.189l-0.226-0.772l-1.382-2.148l-0.547-0.709l0.483,2.697l-0.128,1.16
		l-1.99,3.917l-1.286,1.475l-0.354,0.609l0.899,0.26h0.256l0.289-0.131l0.064-0.096l0.031-0.096l0.516-0.481l0.256-0.32l0.354-0.321
		l0.546-0.256l-0.225-0.192l-0.096-0.192l-0.226-0.641l0.321-0.035l0.256-0.128l0.258-0.192l0.257-0.289l0.353,1.381l0.771,1.026
		l1.926,1.51l0.163,0.192l0.353,0.452l0.256,0.577l0.097,1.186l0.321,0.449l0.737,0.583l0.354,0.481l0.578,1.346l0.386,0.289
		l0.417-0.192l0.29-0.545v-0.673l1.541,1.956l0.771,1.286l0.996,1.029l0.386,0.545l0.514,0.577l0.738,0.417l0.771,0.099l0.579-0.388
		l0.096-0.737l-0.256-0.673l-0.13-0.545l0.547-0.42l0.161,0.708l0.386,0.353l0.354-0.16l0.063-0.673l-0.257-0.676l-0.867-1.093
		l-0.354-0.641l0.258-0.064l0.353-0.257l0.226-0.096l-0.256-0.513l0.128-0.452l0.418-0.32l1.027-0.128l-0.256-0.452l-0.771-0.801
		l-0.097-0.833l0.481-2.443l0.063-1.122l1.318,0.224l0.899-0.032l0.771-0.48l0.87-1.029l3.146,2.728l0.45,0.837l0.064,0.417
		l0.289,0.42l0.449,0.321l1.028,0.417l1.572,1.09l0.675,0.128h0.45l0.449-0.192l1.415-0.865l0.256-0.225l0.224-0.32l0.387-0.805
		l0.159-0.225l0.386-0.225l0.675-0.192l0.674-0.128l0.513,0.096l0.483,0.545l-0.064,0.548l-0.899,1.218l1.444,0.77l1.669,0.452
		l-0.385,0.449l-0.191,0.16l-0.29,0.128l0.386,0.228l0.545,0.064l0.644-0.032l0.547-0.096l0.128-0.452h0.417l1.156,0.452
		l0.449,0.064h1.317l0.771-0.26l0.898-0.705l1.351-1.478l0.192,0.064l-0.354,0.929l-0.449,0.741l-0.612,0.548l-0.737,0.353
		l-0.386,0.064h-0.385l-0.418,0.032l-0.354,0.224l-0.16,0.353l-0.031,0.384l0.096,0.289l0.256,0.192l1.541,0.032l0.868-0.128
		l0.417-0.385l0.128-0.577l0.162-0.289l0.577-0.481l0.258-0.096l0.192,0.128l0.191,0.16l0.256,0.128l0.192-0.032l0.322-0.321
		l0.159-0.064l0.805,0.128l0.545,0.289l0.418,0.353l1.926,2.407l0.548,0.321l0.289,0.388l0.449,0.801l0.322,0.802l-0.064,0.32
		l-0.514-0.353l-0.577-0.673l-0.516-0.801l-0.192-0.645h-0.61l-0.707-0.513l-0.995-1.157l-0.096-0.289v-0.353l-0.063-0.353
		l-0.321-0.289l-0.355-0.032l-0.32,0.128l-0.256,0.192l-0.227,0.064l-0.737-0.192l-0.386,0.064l-0.225,0.321l-0.097,0.353
		l-0.159,0.417l-0.162,0.353l-0.192,0.128l-0.321-0.032l-0.387,0.096l-0.32,0.192l-0.159,0.259l0.159,0.128l0.933,0.513l-0.74,0.228
		l-0.707-0.228l-1.251-0.804l-4.014-1.25l-1.51-0.865l-4.016-1.318l-0.801,0.064l-1.767,0.706l-0.834,0.064l-0.644-0.353
		l-1.06-1.286l-0.676-0.353l-0.771-0.032l-0.577,0.224l-1.929,1.286l-0.385,0.096l-0.482-0.032l-0.321-0.16l-0.289-0.225
		l-0.259-0.032l-0.48,0.897l-0.516,0.58l-0.641,0.417h-0.578l0.61,1.638l1.22,0.898l0.965,1.029l-0.096,2.087l-0.772,1.478
		l-0.225,0.93l0.548,0.513l0.673,0.26l1.606,1.029l0.578,0.513l-1.511,0.289l0.192,0.096l0.451,0.353l-0.354,0.577l0.258,0.16
		l0.932,0.032l0.353,0.353l0.128,0.388l0.323,1.767l0.449,5.171l0.256,0.997l0.418,0.706l0.835,0.16l0.192,0.128l0.128,0.224
		l0.128,0.385v0.225l-0.096,0.256l-0.064,0.256l0.096,0.128l0.256,0.099l0.515,0.385l-0.578,0.32l-0.737,0.032l-0.707-0.192
		l-0.609-0.417l-0.289-0.612l-0.226-0.802l-0.291-0.609l-0.449-0.064l-0.321-0.353l-0.289-0.452l-0.32-0.289l-0.804,0.16
		l-0.128-0.353l-0.032-0.516l-0.064-0.385l-0.449-0.385l-0.354-0.128l-0.195-0.256l0.063-0.737l-0.192-0.192l-1.155-0.064
		l-0.386-0.096l-0.386-0.965l-0.191-0.26l-0.257-0.16l-0.61-0.16l-0.256-0.192l-0.354-0.481v-0.32l0.032-0.353l-0.16-0.577
		l0.064-0.42l0.771-2.632l0.16-0.353l0.291-0.192l0.577-0.096l-0.545-0.096l-0.13-0.26l0.098-0.321l0.032-0.353l-0.099-1.799
		l-0.256-0.513l-0.675-0.289l-1.444-0.228H40.14l-0.578,0.26l-0.933,1.539l-0.159,1.867l0.096,1.923l-0.192,1.641l-0.385,0.737
		l-0.834,1.122l-0.354,0.965l-0.16,1.927l0.32,0.449l0.418,0.16l0.417,0.096l0.354,0.225l0.353,0.836v1.896l0.225,0.866l0.322,0.772
		l0.16,0.933v0.961l-0.096,0.866l-0.547,1.802l-0.674,1.571l-0.354,1.573l0.45,1.735l0.835,1.029l0.354,0.641l0.031,0.836
		l0.226,0.577l1.861,2.119l1.414,2.859l0.835,1.253l2.279,2.149l0.612,0.387l0.738,0.256h0.836l0.802-0.127l0.673,0.063l0.482,0.644
		l1.252-0.483l1.028,0.097l0.833,0.707l0.708,1.346l1.222,4.143l0.576,1.32l-1.22,2.47l0.256,0.228l0.289,0.129h0.323l0.32-0.129
		l0.063,0.354v0.289l-0.096,0.26l-0.192,0.256l-0.771-0.384l-0.481-0.164l-0.354,0.388l-0.579,1.988l-0.481,0.805L52.12,241.7
		l-0.608,0.577l-0.771,0.226l-0.514-0.418l-0.417-0.644l-0.644-0.385l-0.609,0.224l-0.609,0.581l-0.932,1.476l0.513,0.287
		l0.387,0.418l0.354,0.291l0.289,0.385l0.031,0.613l-0.224,0.353l-0.675-0.063l-0.225,0.353l-0.031,0.771l0.418,2.186v1.859
		l-0.291,1.865v0.354l0.191,1.313v0.513l-0.031,0.324l0.031,0.256l0.163,0.453l0.32,0.352l0.321,0.257l0.257,0.321v0.609
		l0.063,0.448l0.289,0.513l0.384,0.389l0.966,0.513l2.857,2.858l0.771,1.287l1.188,3.275l0.256,1.635l0.259,0.838l0.48,0.448
		l0.803,0.257l0.611,0.451l0.481,0.545l0.319,0.641l0.227,0.738l0.128,0.868l0.032,0.933l-0.097,0.994l0.032,0.865l0.385,0.741
		l0.964,1.253l0.578,1.379l0.385,0.645l1.095,0.9l0.225,1.026v1.927l0.834,2.824l0.707,0.288l1.799,1.448l1.188,0.449l0.803,1.282
		l0.645,2.218l0.931,1.635l0.737,1.515l0.803,1.122l0.867,0.865l2.28,0.836l0.804,0.549l0.32,0.609l0.097,0.672l0.096,1.189
		l0.16,0.545l0.516,1.062l0.16,0.642l-0.609,0.257l-0.547-0.031l-0.16-0.289l0.449-0.674l-0.191-0.319l-1.478,2.567l-0.353,1.51
		l-0.032,0.736l0.224,0.705l0.739,0.997l1.927,1.255l0.771,0.801l0.191-0.16l0.644-0.096l0.771,0.03l0.514,0.161l0.258,0.288
		l0.513,0.805l0.29,0.192l0.577,0.354l0.224,0.256l0.065,1.351l-0.097,1.51l-0.417,1.638L79.968,319l-1.571,2.476l-0.323,0.962
		l0.096,0.389l0.868,1.125l0.227,0.354l0.128,0.385l0.096,0.385v0.48l-0.256,0.998l-0.835,1.572l-0.323,0.931l0.323,0.705
		l0.223,0.837l0.128,0.869l-0.321,1.09l-0.449,0.705l-0.417,0.548l-0.354,0.612l-0.608,1.281l-0.45,0.643l0.128,0.545l0.354,0.484
		l0.867,0.447l0.995,0.518l0.804,0.128l1.123,1.282l0.739,1.639l0.513,1.798l1.512,0.32l3.437-0.097l5.3,0.642l1.668,0.452
		l1.381,0.869l1.896-0.192l1.926,1.091l3.278,2.475h0.674l0.834-0.195l0.802-0.064l0.546,0.356l0.386,0.448l0.708,0.642l0.803,0.545
		l0.61,0.192l0.48-0.225l0.354-0.353l0.417-0.257l1.831-0.098l0.707,0.385l0.867,0.098l0.418,0.128l0.354,0.257l0.675,0.836
		l2.055,1.414l1.221,0.609l3.564,4.525l0.449,0.32l0.837,0.133l0.384,0.127l0.322,0.288l0.064,0.386l-0.064,0.451l0.032,0.418
		l0.417,0.353l-0.257,0.448v0.608l0.225,0.646l0.256,0.609l0.097,0.291l0.032,0.545l0.063,0.225l0.162,0.16l0.319,0.129l0.192,0.16
		l1.318,1.703l0.835,0.676l1.123,0.256l-0.482-0.192l-0.288-0.159h-0.257l-0.096-0.42l1.123,0.451l2.634,2.309l3.372,1.642
		l1.731,0.481l1.286,0.832l0.513,0.705l0.739-0.256l0.738-0.191l5.268,0.287l0.482,0.129l0.32,0.229l0.287,0.064l0.419-0.098
		l0.576-0.228l0.836,0.356l0.965,0.898l0.931,1.154l0.996,2.344l0.481,2.123l0.48,1.697l0.098,0.806l-0.063,0.642l-0.258,1.383
		l-0.386,0.545l-0.609,0.483l-0.288,0.673l0.545,1.061l0.226,0.193l0.354,0.191l0.385,0.094l0.386-0.126l0.385-0.032l0.29,0.449
		l0.288,0.545l0.321,0.292l0.323,0.161l0.385,0.256l0.387,0.192l0.417-0.032l0.226-0.256l0.096-0.321l0.032-0.42l0.448-1.219
		l0.257-0.228h0.479l0.289-0.063l0.32-0.128l0.355-0.032l0.772,0.804l0.576,0.098l0.737,0.029l0.931,0.228l0.611,0.415l4.078,5.621
		l1.061,1.188l3.886,2.892l1.479,1.639l1.157,2.152l0.673,0.512l1.41,1.223l0.517,0.545l1.734,2.535l2.925,2.859l4.045,7.9
		l1.281,4.336l0.354,2.311l-0.032,0.807l0.225,0.572l0.261,4.471l-0.129,0.672l-0.483,0.803l-0.479,0.387l-0.354,0.418l-0.097,0.93
		l0.674,1.51l0.031,0.645l-0.192,0.865l-0.576,1.859l0.031,0.451l0.225,0.807l0.064,0.572l0.225-0.35l0.416-1.316l0.417-0.418
		l0.517-0.16l0.257,0.033l0.612,0.225l0.545,0.447l0.77,0.48l0.32,0.42l0.48,0.932l0.355,1.061v0.803l-0.323,0.318l-0.449-0.191
		l-0.191-0.611l-0.386-0.896l-0.256-0.869l-0.385-0.445l0.031-0.582l-0.642-0.385l-0.517-0.096l-0.417,0.416l-0.354,0.389
		l1.031,0.16l0.706,0.705l0.448,1.061l0.417,1.379l-0.032,1.094l-0.288,0.996l0.031,1.252l0.225,0.355l2.699,0.16l2.665,0.16
		l2.695,0.191l2.699,0.16l2.667,0.16l2.695,0.16l2.695,0.16l2.699,0.191l2.667,0.16l2.697,0.164l2.695,0.129l2.667,0.16l2.699,0.16
		l2.695,0.158l2.695,0.129l5.367,0.318l2.696,0.131l2.663,0.127l2.699,0.162l2.698,0.129l2.665,0.127l2.695,0.164l2.699,0.127
		l2.667,0.129l2.696,0.129l2.695,0.127l2.667,0.129l2.699,0.129l2.695,0.096l2.665,0.127l2.699,0.131l1.478,0.062v0.064l0.224-0.545
		l1.512-0.805l3.661,1.252l1.569-0.127l0.421-0.609l0.16-0.771l0.064-0.77l0.225-0.738l0.547-0.516l1.476-0.738l0.48-0.512
		l0.226-0.902l-0.226-2.826l0.128-0.545l0.128-0.385l0.064-0.418l-0.064-0.58l-0.801-1.572l-1.154-0.865l-3.243-0.674l-1.352-0.74
		l-0.868-1.67l0.321-1.479l0.741-1.539l0.451-1.832l-0.032-2.506l-0.16-0.607l-0.966-1.445v-0.643l0.513-1.16l0.485-0.381
		l0.191-0.354l-0.16-0.484l-0.229-0.387l-0.32-0.607l-0.097-0.516l0.386-0.191l1.767,0.127l0.93-0.16l0.709-0.385l1.638-2.344
		l0.481-0.996l0.416-0.389l0.806-0.639l0.579-0.549l0.16-0.287l0.192-0.545l-0.063-0.965l0.096-0.578l0.321-0.191l0.16-0.191
		l0.096-0.48l0.097-0.934l0.288-1.029l0.481-0.545l0.479-0.447l0.32-0.578l-0.288-0.838l-0.097-0.479l0.225-0.193l0.16-0.225
		l0.102-0.484l0.03-0.512l-0.1-0.258l-0.385-0.514l0.031-1.061l0.128-1.094v-0.643l0.741-0.447l0.32-0.352v-0.391l-0.576-0.93
		l-0.225-0.512l-0.068-0.518l0.356-0.93l0.644-0.516l1.539-0.738l0.641-0.513l0.679-0.612l0.513-0.771l0.516-1.798l0.48-0.737
		l0.642-0.549l1.351-0.224l3.98-2.123l0.708-0.092l1.314-1.318l1.351-1.025l1.223-0.707l0.385-0.546L304.837,384.385z
		 M46.321,165.463c-0.174,0.82-0.538,1.557-1.092,2.208c-0.44,0.496-0.981,0.921-1.623,1.274c-0.641,0.354-1.687,0.743-3.137,1.169
		l-0.422,0.124l-5.835,1.715l-1.774-6.038l4.385-1.288c0.27-0.079,0.461-0.196,0.574-0.352c0.113-0.156,0.142-0.329,0.086-0.521
		c-0.037-0.123-0.096-0.222-0.179-0.296c-0.083-0.073-0.21-0.134-0.383-0.181l-0.927-0.222c-2.006-0.51-3.365-1.042-4.078-1.596
		c-0.713-0.555-1.221-1.349-1.524-2.383c-0.433-1.473-0.243-2.777,0.571-3.914c0.814-1.138,2.171-1.985,4.071-2.544l6.628-1.947
		l1.641,5.582l-3.879,1.14c-0.214,0.063-0.369,0.176-0.468,0.34c-0.1,0.163-0.12,0.34-0.064,0.531
		c0.03,0.102,0.092,0.187,0.186,0.257s0.213,0.121,0.356,0.151l0.815,0.219c0.011-0.003,0.037,0.002,0.077,0.015
		c3.387,0.885,5.35,2.244,5.889,4.077C46.459,163.817,46.494,164.643,46.321,165.463z M64.71,157.247
		c-0.119,1.238-0.475,2.408-1.066,3.511c-0.593,1.103-1.361,2.039-2.307,2.812c-0.945,0.772-2.014,1.334-3.206,1.684
		c-1.181,0.348-2.371,0.453-3.571,0.317c-1.2-0.137-2.349-0.513-3.446-1.131c-1.127-0.634-2.073-1.431-2.837-2.391
		c-0.765-0.96-1.329-2.059-1.692-3.295c-0.367-1.248-0.488-2.483-0.365-3.704c0.124-1.222,0.489-2.397,1.098-3.529
		c0.58-1.099,1.344-2.037,2.287-2.815c0.944-0.778,2-1.339,3.17-1.683c1.203-0.354,2.408-0.461,3.615-0.32
		c1.208,0.14,2.35,0.521,3.425,1.146c1.115,0.638,2.06,1.441,2.833,2.41c0.774,0.97,1.339,2.062,1.695,3.276
		C64.706,154.771,64.828,156.009,64.71,157.247z M78.736,158.869c-3.069,0.902-5.78,0.813-8.131-0.267
		c-2.352-1.081-3.91-2.925-4.677-5.533s-0.449-4.998,0.953-7.169c1.401-2.171,3.632-3.706,6.689-4.604l2.176-0.64l1.918,6.527
		l-2.479,0.729c-0.855,0.251-1.471,0.651-1.846,1.201c-0.376,0.551-0.463,1.169-0.262,1.854c0.195,0.663,0.603,1.124,1.222,1.382
		s1.351,0.263,2.194,0.015l2.479-0.729l1.938,6.594L78.736,158.869z M97.934,147.483c-0.119,1.237-0.475,2.408-1.066,3.51
		c-0.592,1.103-1.36,2.04-2.307,2.812c-0.945,0.772-2.014,1.334-3.206,1.685c-1.18,0.347-2.37,0.452-3.571,0.316
		c-1.199-0.136-2.349-0.513-3.446-1.131c-1.127-0.634-2.072-1.431-2.837-2.391c-0.766-0.96-1.329-2.059-1.692-3.295
		c-0.366-1.248-0.489-2.482-0.364-3.704c0.123-1.221,0.488-2.397,1.097-3.528c0.581-1.1,1.343-2.038,2.287-2.815
		c0.944-0.778,2.001-1.34,3.17-1.684c1.203-0.354,2.408-0.46,3.616-0.32c1.207,0.14,2.349,0.521,3.424,1.146
		c1.115,0.637,2.061,1.44,2.834,2.41s1.339,2.062,1.695,3.276C97.93,145.007,98.053,146.245,97.934,147.483z"/>
	<path fill="#F6863D" stroke="#F9F9FA" stroke-width="0.25" stroke-linecap="round" stroke-linejoin="round" d="M89.525,144.585
		c-0.444-0.266-0.92-0.325-1.426-0.177c-0.483,0.143-0.843,0.449-1.076,0.921c-0.233,0.473-0.271,0.983-0.108,1.534
		c0.159,0.54,0.466,0.951,0.922,1.232c0.455,0.281,0.924,0.351,1.407,0.209c0.495-0.146,0.858-0.457,1.091-0.935
		c0.232-0.477,0.268-0.991,0.105-1.542C90.275,145.266,89.97,144.852,89.525,144.585z"/>
	<polygon fill="#F6863D" stroke="#F9F9FA" stroke-width="0.25" stroke-linecap="round" stroke-linejoin="round" points="
		42.744,185.56 42.742,185.56 42.356,185.304 42.292,185.4 42.132,185.368 42.004,185.528 41.972,185.881 41.972,185.913 
		42.164,186.073 42.455,186.041 	"/>
	<polygon fill="#F6863D" stroke="#F9F9FA" stroke-width="0.25" stroke-linecap="round" stroke-linejoin="round" points="
		43.898,187.358 43.898,187.903 43.93,187.935 44.22,188.483 44.284,188.355 44.284,188.323 44.09,188.195 44.284,187.487 	"/>
</g>
</svg>
