<?xml version="1.0" encoding="utf-8"?>
<!-- Generator: Adobe Illustrator 15.0.2, SVG Export Plug-In . SVG Version: 6.00 Build 0)  -->
<!DOCTYPE svg PUBLIC "-//W3C//DTD SVG 1.1//EN" "http://www.w3.org/Graphics/SVG/1.1/DTD/svg11.dtd">
<svg version="1.1" id="Layer_1" xmlns="http://www.w3.org/2000/svg" xmlns:xlink="http://www.w3.org/1999/xlink" x="0px" y="0px"
	 width="192.94px" height="284.812px" viewBox="112.115 165.575 192.94 284.812"
	 enable-background="new 112.115 165.575 192.94 284.812" xml:space="preserve">
<g>
	<path fill="#F6863D" stroke="#F9F9FA" stroke-width="0.25" stroke-linecap="round" stroke-linejoin="round" d="M147.753,263.194
		c-0.281-0.169-0.582-0.206-0.901-0.112c-0.306,0.09-0.532,0.284-0.68,0.582c-0.148,0.299-0.171,0.622-0.068,0.97
		c0.1,0.342,0.294,0.602,0.582,0.778c0.289,0.179,0.585,0.223,0.89,0.133c0.313-0.092,0.543-0.289,0.689-0.591
		s0.17-0.626,0.067-0.976C148.227,263.625,148.034,263.362,147.753,263.194z"/>
	<path fill="#F6863D" stroke="#F9F9FA" stroke-width="0.25" stroke-linecap="round" stroke-linejoin="round" d="M304.871,408.616
		l0.039-0.364l-0.649-0.566l-0.224-0.328l-0.203-0.201l-0.366-0.264l-1.685-1.604l-0.283-0.446l-0.104-0.101l-0.405-0.365
		l-0.082-0.103l-0.162-0.224l-0.081-0.081l-0.081-0.04l-0.101-0.04l-0.304-0.04l-0.121-0.062l-0.102-0.142l-0.081-0.184l-0.02-0.347
		v-0.244l0.02-0.019l0.162-0.408l0.163-0.363l-0.183-0.303l-0.04-0.021l-0.04-0.566l-0.202-0.306l-0.265-0.265l-0.224-0.486v-0.183
		l0.121-0.63v-0.224l-0.082-0.142l-0.081-0.124l-1.056-3.186l-0.589-0.183l-0.427-0.345l-0.225-0.548l0.063-0.774l-0.04-0.345
		l-0.124-0.445l-0.201-0.408l-0.304-0.202l-0.325-0.161l-0.121-0.348l0.183-3.205l0.02-0.202l-3.633-4.407l-3.594-4.425
		l-3.737-4.609l-3.469-4.386l-3.068-3.899l-3.065-3.917l-3.045-3.917l-3.026-3.899l-3.022-3.919l-3.024-3.938l-3.008-3.917
		l-2.983-3.919l-3.451-4.326l-3.411-4.323l-3.411-4.326l-3.371-4.345l-3.389-4.324l-3.37-4.344l-3.351-4.345l-3.331-4.346
		l-4.304-5.218l-4.284-5.217l-4.262-5.239l-4.243-5.238l-4.223-5.237l-4.203-5.256l-4.183-5.262l-4.161-5.257l0.062-0.364
		l0.283-1.483l0.894-4.893l0.873-4.872l0.894-4.872l0.894-4.874l0.893-4.874l0.894-4.871l0.893-4.872l0.873-4.873l0.894-4.852
		l0.894-4.852l0.872-4.873l0.894-4.854l0.895-4.852l0.873-4.831l0.892-4.851l0.874-4.832l-5.34-0.997l-5.339-0.993l-5.319-0.997
		l-5.318-1.034l-5.34-1.015l-5.319-1.056l-5.318-1.054l-5.321-1.079l-5.317-1.076l-5.318-1.097l-5.321-1.096l-5.299-1.117
		l-5.319-1.137l-5.3-1.157l-5.299-1.158l-5.3-1.158l-0.101-0.04l-0.568-0.122l0.122,0.529l0.02,0.281l-0.02,0.308l-0.63,2.394
		l-0.264,0.407l-0.71,0.892l-0.713,0.589l-0.041,0.162l0.629,0.425l0.854,0.954l0.63,1.058l-0.101,0.75l-0.122,0.405l0.122,0.689
		l0.101,0.65l0.121,0.286l0.041,0.163l-0.163,0.689l-0.04,0.266l0.061,0.262l0.122,0.245l0.163,0.203l0.203,0.165l-0.386,0.405
		l-0.061,0.851l-0.021,1.666l-0.224,0.771l-0.752,1.42l-0.465,1.342l-0.854,1.683l-0.589,0.833l-0.446,0.935l-0.425,0.324
		l-0.143,0.405l-0.081,0.488l0.021,0.368l-0.122,0.365l0.447,1.177l0.081,0.61l-0.162,0.588l-2.091,3.656l-1.239,1.216l-0.346,0.528
		l0.427-0.121l0.447-0.387l1.278-1.4l0.122-0.061l0.832,0.284l0.244-0.059l0.162,0.202l0.081,0.041l-0.466,0.527l-0.427,0.141
		l-0.467-0.021l-0.589,0.081l-0.366,0.264l-0.75,0.935l-0.284,0.182l-0.285,1.036l-0.284,0.466l-0.427-0.324l-0.245-0.324
		l0.04-0.101l0.224-0.507l0.121-0.182l-0.792,0.668l-0.507,0.567l-0.447,0.752l0.02,0.083l0.044,0.14l0.02,0.124l-0.101,0.02h-0.082
		l-0.081,0.061l-0.081,0.082l-0.103,0.284l-0.811,0.912l-0.244,0.347l-0.365,0.67l-0.346,0.669l-0.143,0.426l-0.182,0.366
		l-0.305,0.408l-0.223,0.385l-0.02,0.365l0.203,0.628l0.245,1.726v0.689l-0.508,1.179l-0.082,0.628l0.264,0.365l0.264,0.223
		l2.212,3.028l0.996,0.933l0.304,0.445l0.548,1.342l0.02,0.203l-0.082,0.608l0.042,0.243l0.142,0.126l0.467,0.282l0.162,0.142
		l0.528,0.773l2.03,4.932l0.02,0.466l-0.163,1.18l0.081,0.648l0.081,0.364l0.102,0.183l0.224,0.145l0.061,0.243l0.04,0.286
		l0.061,0.283l0.04,0.446l-0.465,1.849l0.243,1.664l-0.121,0.225l-0.365,0.183l-0.345,0.526l-0.508,1.117l-0.609,1.785l-0.528,0.873
		l0.203,1.036l-0.122,0.466l0.142,0.225l0.081,0.404l0.061,0.752v1.259l0.081,0.61l0.285,0.304l0.385,1.99l-0.021,0.284
		l-0.223,0.892l-0.02,0.266l0.081,0.59v0.283l-0.243,0.649l-0.285,0.306l-0.345,0.18l-0.385,0.407l-0.082,0.813l0.407,1.014
		l1.117,1.909l0.934,1.136l0.121,0.327l0.102,0.425l0.365,0.507l0.67,0.731l0.507,0.792l2.559,5.5l0.568,0.772l2.273,1.869
		l0.487,0.812l0.203,1.685l0.426,0.63l-0.305,1.319l0.163,0.467l0.02-0.184l0.142-0.549l1.056,1.098l0.284,0.507l0.04,0.224v0.526
		l0.04,0.245l0.447,0.834l0.649,1.828l0.649,1.195l0.224,0.63v0.65l-0.264-0.609l-0.446-0.59l-0.366-0.649l-0.04-0.751l-0.143-0.488
		l-0.874-1.357l-0.346-0.448l0.305,1.704l-0.081,0.733l-1.258,2.477l-0.813,0.933l-0.224,0.385l0.569,0.165h0.162l0.183-0.084
		l0.041-0.06l0.02-0.062l0.326-0.304l0.162-0.202l0.224-0.203l0.345-0.162l-0.142-0.121l-0.061-0.121l-0.143-0.405l0.203-0.022
		l0.162-0.081l0.163-0.121l0.162-0.183l0.224,0.873l0.487,0.648l1.218,0.955l0.103,0.121l0.224,0.285l0.162,0.365l0.061,0.75
		l0.203,0.283l0.466,0.369l0.223,0.304l0.366,0.852l0.244,0.183l0.264-0.122l0.183-0.345v-0.425l0.975,1.236l0.487,0.813l0.63,0.65
		l0.244,0.344l0.325,0.365l0.466,0.264l0.487,0.062l0.366-0.245l0.061-0.466l-0.163-0.426l-0.082-0.345l0.346-0.266l0.102,0.448
		l0.245,0.223l0.223-0.101l0.041-0.426l-0.163-0.428l-0.548-0.69l-0.224-0.405l0.163-0.041l0.224-0.162l0.143-0.061l-0.162-0.324
		l0.081-0.286l0.264-0.202l0.649-0.081L139,279.312l-0.488-0.506l-0.061-0.526l0.304-1.545l0.04-0.709l0.833,0.142l0.568-0.021
		l0.487-0.303l0.55-0.65l1.989,1.725l0.285,0.528l0.04,0.264l0.183,0.266l0.284,0.203l0.65,0.264l0.993,0.688l0.427,0.081h0.284
		l0.284-0.121l0.895-0.547l0.162-0.142l0.142-0.203l0.245-0.509l0.101-0.142l0.244-0.143l0.427-0.121l0.426-0.082l0.325,0.062
		l0.305,0.345l-0.04,0.346l-0.569,0.771l0.913,0.486l1.055,0.286l-0.243,0.283l-0.121,0.102l-0.183,0.081l0.244,0.145l0.345,0.04
		l0.407-0.021l0.346-0.061l0.081-0.286h0.264l0.73,0.286l0.284,0.041h0.832l0.488-0.165l0.567-0.445l0.854-0.935l0.12,0.041
		l-0.223,0.587l-0.284,0.469l-0.388,0.346l-0.465,0.224l-0.245,0.04h-0.243l-0.264,0.021l-0.224,0.142l-0.102,0.223l-0.02,0.243
		l0.061,0.183l0.162,0.121l0.975,0.021l0.548-0.081l0.264-0.243l0.081-0.364l0.103-0.184l0.365-0.304l0.162-0.061l0.122,0.081
		l0.121,0.102l0.161,0.08l0.121-0.02l0.204-0.203l0.101-0.041l0.509,0.081l0.345,0.183l0.264,0.224l1.219,1.521l0.346,0.203
		l0.183,0.245l0.283,0.507l0.204,0.507l-0.04,0.202l-0.325-0.224l-0.365-0.425l-0.326-0.507l-0.121-0.407h-0.386l-0.446-0.325
		l-0.629-0.73l-0.061-0.184v-0.223l-0.041-0.224l-0.203-0.183l-0.224-0.021l-0.202,0.082l-0.162,0.121l-0.144,0.04l-0.466-0.121
		l-0.244,0.04l-0.143,0.203l-0.061,0.224l-0.101,0.264l-0.103,0.223l-0.121,0.081l-0.203-0.021l-0.244,0.061l-0.203,0.122
		l-0.101,0.163l0.101,0.081l0.59,0.324l-0.468,0.145l-0.446-0.145l-0.791-0.508l-2.538-0.79l-0.955-0.547l-2.539-0.834l-0.507,0.041
		l-1.117,0.446l-0.527,0.04l-0.407-0.223l-0.67-0.813l-0.427-0.223l-0.488-0.021l-0.365,0.142l-1.219,0.813l-0.243,0.061
		l-0.305-0.021l-0.202-0.102l-0.183-0.142l-0.164-0.021l-0.304,0.567l-0.326,0.366l-0.406,0.264h-0.366l0.386,1.035l0.771,0.568
		l0.61,0.65l-0.061,1.319l-0.488,0.935l-0.143,0.588l0.346,0.324l0.426,0.164l1.015,0.65l0.365,0.324l-0.955,0.184l0.121,0.061
		l0.285,0.223l-0.224,0.365l0.163,0.101l0.589,0.021l0.224,0.223l0.081,0.246l0.204,1.116l0.284,3.27l0.162,0.63l0.264,0.446
		l0.528,0.102l0.122,0.081l0.081,0.142l0.081,0.243v0.143l-0.061,0.161l-0.041,0.162l0.061,0.081l0.162,0.062l0.326,0.243
		l-0.366,0.203l-0.465,0.02l-0.447-0.121l-0.385-0.264l-0.183-0.387l-0.143-0.507l-0.184-0.386l-0.284-0.04l-0.203-0.224
		l-0.183-0.285l-0.202-0.183l-0.509,0.101l-0.081-0.223l-0.021-0.326l-0.04-0.243l-0.284-0.244l-0.224-0.081l-0.123-0.161
		l0.039-0.467l-0.121-0.121l-0.73-0.04l-0.244-0.061l-0.244-0.61l-0.121-0.164l-0.162-0.102l-0.386-0.102l-0.162-0.121l-0.223-0.304
		v-0.202l0.02-0.224l-0.101-0.364l0.04-0.266l0.488-1.664l0.101-0.223l0.184-0.122l0.365-0.061l-0.344-0.061l-0.083-0.164
		l0.062-0.203l0.021-0.224l-0.062-1.137l-0.162-0.324l-0.427-0.183l-0.913-0.145h-0.465l-0.366,0.164l-0.589,0.974l-0.101,1.18
		l0.06,1.216l-0.121,1.037l-0.244,0.466l-0.527,0.71l-0.224,0.609l-0.102,1.219l0.203,0.283l0.264,0.102l0.264,0.061l0.224,0.143
		l0.224,0.528v1.199l0.142,0.547l0.204,0.488l0.101,0.59v0.607l-0.061,0.548l-0.346,1.139l-0.426,0.993l-0.223,0.994l0.284,1.097
		l0.529,0.651l0.223,0.405l0.02,0.528l0.143,0.364l1.177,1.34l0.894,1.808l0.528,0.792l1.441,1.358l0.387,0.244l0.467,0.162h0.528
		l0.507-0.08l0.425,0.039l0.305,0.408l0.792-0.306l0.65,0.062l0.526,0.446l0.448,0.852l0.772,2.619l0.364,0.834l-0.771,1.562
		l0.162,0.145l0.183,0.081h0.204l0.203-0.081l0.04,0.224v0.183l-0.061,0.164l-0.121,0.162l-0.487-0.242l-0.304-0.104l-0.224,0.245
		l-0.366,1.257l-0.304,0.509l-0.343,0.445l-0.385,0.364l-0.487,0.143l-0.325-0.264l-0.264-0.407l-0.407-0.243l-0.385,0.142
		l-0.385,0.367l-0.589,0.933l0.324,0.182l0.245,0.265l0.223,0.184l0.183,0.243l0.02,0.388l-0.141,0.223l-0.427-0.039l-0.142,0.224
		l-0.02,0.486l0.264,1.383v1.175l-0.184,1.179v0.224l0.121,0.83v0.324l-0.02,0.205l0.02,0.162l0.103,0.286l0.202,0.223l0.203,0.162
		l0.163,0.203v0.385l0.04,0.284l0.183,0.324l0.243,0.245l0.61,0.324l1.807,1.807l0.487,0.814l0.751,2.069l0.162,1.034l0.164,0.53
		l0.304,0.283l0.508,0.162l0.386,0.284l0.304,0.346l0.202,0.405l0.143,0.466l0.081,0.549l0.02,0.59l-0.061,0.629l0.02,0.546
		l0.244,0.47l0.609,0.791l0.365,0.872l0.244,0.408l0.692,0.568l0.143,0.649v1.218l0.527,1.785l0.447,0.182l1.137,0.916l0.751,0.284
		l0.508,0.81l0.407,1.402l0.589,1.034l0.466,0.958l0.508,0.708l0.548,0.548l1.441,0.528l0.508,0.347l0.203,0.385l0.061,0.425
		l0.062,0.752l0.101,0.345l0.326,0.671l0.102,0.406l-0.385,0.163l-0.346-0.021l-0.102-0.183l0.284-0.426l-0.121-0.202l-0.935,1.623
		l-0.223,0.955l-0.021,0.465l0.142,0.446l0.468,0.629l1.218,0.794l0.487,0.507l0.121-0.102l0.406-0.061l0.488,0.019l0.324,0.103
		l0.163,0.182l0.325,0.509l0.183,0.121l0.365,0.225l0.142,0.162l0.04,0.854l-0.061,0.955l-0.264,1.035l-0.346,1.031l-0.993,1.566
		l-0.204,0.607l0.061,0.246l0.549,0.711l0.144,0.225l0.081,0.243l0.061,0.243v0.304l-0.162,0.631l-0.528,0.993l-0.203,0.588
		l0.203,0.446l0.142,0.529l0.081,0.549l-0.203,0.689l-0.284,0.446l-0.264,0.346l-0.224,0.387l-0.384,0.811l-0.285,0.406l0.081,0.345
		l0.224,0.306l0.549,0.282l0.629,0.327l0.508,0.081l0.71,0.811l0.468,1.037l0.324,1.136l0.955,0.202l2.174-0.061l3.35,0.405
		l1.055,0.286l0.873,0.549l1.199-0.121l1.217,0.69l2.072,1.564h0.427l0.527-0.124l0.507-0.04l0.345,0.226l0.244,0.282l0.447,0.406
		l0.508,0.345l0.386,0.121l0.304-0.142l0.224-0.224l0.264-0.163l1.157-0.062l0.447,0.243l0.548,0.062l0.265,0.08l0.223,0.163
		l0.428,0.528l1.299,0.895l0.771,0.385l2.254,2.86l0.283,0.202l0.529,0.084l0.243,0.081l0.203,0.182l0.04,0.244l-0.04,0.285
		l0.02,0.264l0.264,0.224l-0.162,0.283v0.385l0.143,0.408l0.162,0.384l0.061,0.185l0.021,0.345l0.04,0.143l0.103,0.101l0.201,0.082
		l0.122,0.101l0.833,1.077l0.527,0.427l0.71,0.162l-0.304-0.122l-0.183-0.1h-0.162l-0.062-0.266l0.71,0.285l1.665,1.46l2.132,1.038
		l1.095,0.304l0.813,0.526l0.323,0.445l0.468-0.162l0.466-0.12l3.331,0.181l0.304,0.082l0.203,0.145l0.182,0.041l0.265-0.062
		l0.364-0.145l0.528,0.225l0.61,0.568l0.588,0.729l0.63,1.482l0.305,1.342l0.303,1.073l0.062,0.509l-0.04,0.405l-0.163,0.875
		l-0.244,0.345l-0.385,0.306l-0.183,0.425l0.345,0.671l0.144,0.122l0.223,0.12l0.244,0.06l0.244-0.079l0.243-0.021l0.184,0.284
		l0.182,0.344l0.203,0.186l0.204,0.102l0.243,0.161l0.245,0.122l0.264-0.021l0.143-0.162l0.061-0.202l0.021-0.266l0.283-0.771
		l0.162-0.145h0.303l0.184-0.039l0.201-0.082l0.225-0.02l0.488,0.508l0.364,0.062l0.466,0.019l0.588,0.144l0.387,0.263l2.578,3.553
		l0.671,0.752l2.457,1.828l0.935,1.035l0.731,1.361l0.426,0.323l0.891,0.773l0.327,0.345l1.097,1.603l1.849,1.807l2.557,4.995
		l0.811,2.74l0.224,1.461l-0.021,0.511l0.143,0.361l0.165,2.826l-0.082,0.425l-0.305,0.508l-0.304,0.244l-0.223,0.265l-0.062,0.588
		l0.427,0.955l0.02,0.408l-0.121,0.546l-0.364,1.176l0.02,0.285l0.143,0.51l0.04,0.361l0.143-0.221l0.263-0.832l0.264-0.265
		l0.326-0.101l0.163,0.021l0.387,0.143l0.345,0.282l0.487,0.304l0.201,0.265l0.304,0.59l0.225,0.671v0.508l-0.204,0.2l-0.284-0.12
		l-0.121-0.387l-0.243-0.566l-0.162-0.549l-0.243-0.281l0.02-0.368l-0.406-0.243l-0.326-0.062l-0.264,0.264l-0.225,0.246
		l0.652,0.102l0.446,0.444l0.283,0.671l0.264,0.872l-0.021,0.691l-0.182,0.63l0.02,0.791l0.143,0.226l1.706,0.101l1.685,0.101
		l1.703,0.121l1.707,0.102l1.686,0.102l1.704,0.101l1.704,0.101l1.705,0.121l1.687,0.102l1.705,0.104l1.704,0.081l1.686,0.102
		l1.706,0.102l1.704,0.1l1.703,0.081l3.394,0.201l1.704,0.083l1.684,0.08l1.706,0.103l1.706,0.081l1.685,0.081l1.704,0.104
		l1.705,0.08l1.687,0.081l1.704,0.082l1.704,0.081l1.686,0.081l1.707,0.082l1.703,0.061l1.685,0.08l1.706,0.082l0.936,0.04v0.04
		l0.141-0.345l0.956-0.509l2.314,0.792l0.992-0.08l0.266-0.386l0.102-0.487l0.04-0.486l0.143-0.467l0.346-0.326l0.933-0.467
		l0.304-0.323l0.143-0.57l-0.143-1.786l0.081-0.345l0.081-0.244l0.04-0.264l-0.04-0.367l-0.506-0.993l-0.73-0.547l-2.05-0.426
		l-0.854-0.469l-0.549-1.056l0.202-0.935l0.469-0.973l0.285-1.158l-0.021-1.585l-0.101-0.383l-0.611-0.914v-0.406l0.325-0.733
		l0.307-0.24l0.12-0.225l-0.101-0.306l-0.146-0.245l-0.201-0.383l-0.062-0.327l0.245-0.12l1.116,0.08l0.588-0.102l0.448-0.243
		l1.036-1.482l0.304-0.629l0.263-0.246l0.51-0.403l0.366-0.348l0.101-0.182l0.122-0.344l-0.04-0.61l0.061-0.365l0.203-0.121
		l0.101-0.12l0.062-0.304l0.061-0.591l0.183-0.65l0.304-0.345l0.303-0.282l0.203-0.366l-0.183-0.529l-0.062-0.303l0.143-0.122
		l0.102-0.142l0.063-0.307l0.02-0.323l-0.063-0.164l-0.243-0.324l0.02-0.671l0.081-0.691v-0.406l0.469-0.283l0.201-0.222v-0.248
		l-0.363-0.588l-0.143-0.323l-0.043-0.328l0.226-0.588l0.407-0.325l0.973-0.467l0.405-0.324l0.429-0.388l0.324-0.486l0.326-1.138
		l0.304-0.465l0.406-0.348l0.854-0.142l2.517-1.342l0.447-0.059l0.83-0.833l0.854-0.648l0.773-0.446l0.243-0.346L304.871,408.616z
		 M141.444,270.22c-0.11,0.519-0.34,0.984-0.69,1.396c-0.278,0.313-0.62,0.582-1.026,0.806c-0.405,0.224-1.066,0.47-1.983,0.739
		l-0.267,0.078l-3.688,1.084l-1.122-3.817l2.772-0.813c0.17-0.051,0.292-0.124,0.362-0.223c0.072-0.099,0.09-0.208,0.054-0.33
		c-0.023-0.077-0.061-0.14-0.113-0.187c-0.052-0.046-0.133-0.085-0.242-0.114l-0.585-0.141c-1.269-0.322-2.127-0.658-2.578-1.009
		c-0.451-0.352-0.772-0.853-0.964-1.507c-0.273-0.931-0.154-1.756,0.361-2.474c0.514-0.72,1.372-1.256,2.574-1.608l4.19-1.231
		l1.037,3.529l-2.452,0.721c-0.135,0.04-0.233,0.111-0.296,0.215c-0.063,0.103-0.076,0.215-0.041,0.336
		c0.019,0.064,0.058,0.118,0.118,0.162s0.135,0.076,0.225,0.096l0.516,0.138c0.007-0.001,0.023,0.002,0.049,0.01
		c2.141,0.56,3.382,1.419,3.723,2.577C141.531,269.179,141.554,269.701,141.444,270.22z M153.07,265.025
		c-0.076,0.783-0.301,1.522-0.674,2.22c-0.375,0.697-0.86,1.289-1.458,1.777c-0.598,0.488-1.273,0.844-2.027,1.064
		c-0.747,0.221-1.499,0.287-2.258,0.201c-0.759-0.087-1.485-0.324-2.179-0.715c-0.712-0.401-1.31-0.905-1.793-1.512
		c-0.483-0.607-0.839-1.302-1.069-2.083c-0.232-0.789-0.309-1.57-0.231-2.342c0.079-0.772,0.31-1.516,0.694-2.23
		c0.367-0.695,0.85-1.288,1.446-1.78c0.597-0.492,1.264-0.846,2.004-1.063c0.76-0.224,1.522-0.292,2.285-0.202
		c0.764,0.088,1.486,0.329,2.165,0.725c0.705,0.402,1.303,0.91,1.791,1.522c0.49,0.613,0.847,1.304,1.072,2.071
		C153.067,263.46,153.144,264.243,153.07,265.025z M161.936,266.051c-1.939,0.57-3.653,0.515-5.14-0.169
		c-1.487-0.683-2.473-1.849-2.957-3.497c-0.484-1.649-0.284-3.16,0.603-4.532c0.886-1.373,2.296-2.343,4.229-2.911l1.376-0.404
		l1.213,4.126l-1.567,0.461c-0.541,0.159-0.931,0.412-1.167,0.76c-0.238,0.348-0.293,0.739-0.166,1.172
		c0.123,0.419,0.381,0.71,0.772,0.874c0.392,0.162,0.854,0.166,1.388,0.009l1.566-0.461l1.226,4.169L161.936,266.051z
		 M174.073,258.854c-0.075,0.781-0.3,1.521-0.674,2.219s-0.859,1.289-1.459,1.777c-0.597,0.488-1.272,0.844-2.026,1.065
		c-0.746,0.219-1.498,0.285-2.257,0.2c-0.758-0.087-1.485-0.325-2.179-0.716c-0.713-0.4-1.311-0.904-1.794-1.511
		c-0.484-0.607-0.84-1.302-1.069-2.083c-0.231-0.789-0.31-1.569-0.23-2.342c0.078-0.772,0.309-1.516,0.694-2.23
		c0.367-0.695,0.849-1.289,1.445-1.78s1.266-0.847,2.004-1.064c0.761-0.224,1.522-0.29,2.286-0.202
		c0.763,0.089,1.485,0.33,2.165,0.725c0.704,0.402,1.302,0.91,1.791,1.523c0.488,0.613,0.847,1.304,1.071,2.071
		C174.07,257.288,174.148,258.07,174.073,258.854z"/>
	<path fill="#F6863D" stroke="#F9F9FA" stroke-width="0.25" stroke-linecap="round" stroke-linejoin="round" d="M168.756,257.021
		c-0.28-0.169-0.581-0.206-0.901-0.112c-0.305,0.09-0.532,0.284-0.68,0.582c-0.147,0.299-0.171,0.622-0.068,0.97
		c0.101,0.342,0.295,0.602,0.583,0.779s0.584,0.222,0.89,0.132c0.312-0.092,0.542-0.289,0.689-0.591
		c0.146-0.302,0.169-0.627,0.066-0.975C169.231,257.451,169.038,257.189,168.756,257.021z"/>
	<polygon fill="#F6863D" stroke="#F9F9FA" stroke-width="0.25" stroke-linecap="round" stroke-linejoin="round" points="
		139.183,282.925 139.182,282.925 138.938,282.763 138.897,282.823 138.796,282.803 138.715,282.904 138.695,283.127 
		138.695,283.147 138.817,283.249 139,283.229 	"/>
	<polygon fill="#F6863D" stroke="#F9F9FA" stroke-width="0.25" stroke-linecap="round" stroke-linejoin="round" points="
		139.912,284.061 139.912,284.405 139.933,284.426 140.116,284.772 140.156,284.691 140.156,284.671 140.034,284.59 
		140.156,284.143 	"/>
</g>
</svg>
